<?xml version="1.0" encoding="UTF-8"?>
<!DOCTYPE svg PUBLIC "-//W3C//DTD SVG 1.1//EN" "http://www.w3.org/Graphics/SVG/1.1/DTD/svg11.dtd">
<!-- Creator: CorelDRAW 2018 -->
<svg xmlns="http://www.w3.org/2000/svg" xml:space="preserve" width="98mm" height="37.5mm" version="1.1" style="shape-rendering:geometricPrecision; text-rendering:geometricPrecision; image-rendering:optimizeQuality; fill-rule:evenodd; clip-rule:evenodd"
viewBox="0 0 9800 3750"
 xmlns:xlink="http://www.w3.org/1999/xlink">
 <defs>
  <style type="text/css">
   <![CDATA[
    .fil0 {fill:#009337}
    .fil1 {fill:black;fill-rule:nonzero}
    .fil2 {fill:white;fill-rule:nonzero}
   ]]>
  </style>
 </defs>
 <g id="Слой_x0020_1">
  <metadata id="CorelCorpID_0Corel-Layer"/>
  <path class="fil0" d="M4896.55 3512.13l372.49 -489.58 1899.78 0c135.52,-160.53 298.71,-341.27 366.55,-505.91l2111.2 -654.52 -2111.2 -654.52c-67.84,-164.64 -231.03,-345.39 -366.55,-505.91l-1899.78 0 -372.49 -489.56 -372.49 489.61 -1899.78 0c-135.52,160.52 -298.68,341.27 -366.52,505.9l-2111.2 654.5 2111.2 654.5c67.84,164.64 231,345.38 366.52,505.91l1899.78 0 372.49 489.58z"/>
  <path class="fil1" d="M3179.78 2313.96l-84.25 -52.67 29.84 -865.24 -64.7 -21.59 -74.71 -171.22 7.31 -4.58c29.86,-18.68 60.43,-38.74 91.35,-59.03 159.57,-104.7 329.43,-216.16 532.31,-222.8 47.95,-6.19 128.15,21.16 167.37,47.72l94.7 60.86c36.02,23.14 62.56,56.86 81.2,96.29 21,44.43 31.98,96.19 35.23,148.12 6.98,111.37 2.41,214.16 -25.84,310.55 -27.39,93.43 -76.96,180.57 -159.65,263.22l17.11 12.37 14.42 7.71 9.99 5.65 444.88 -273.21 89.69 56.06 -34.7 505.65c-0.32,6.07 -0.48,14.32 -0.21,23.31l0.5 10.02c6.07,-2.43 12.56,-5.73 19.77,-10.18 12.33,-7.61 26.72,-18.52 44.56,-33.91 81.95,-70.78 126.72,-153.45 152.2,-241.82 24.33,-84.39 31.25,-174.5 36.14,-264.51 -25.12,8.93 -49.45,17.82 -74.06,28.24l-79.37 -49.56 1.85 -210.61 166.83 -59.9c3.7,-72.01 5.16,-114.07 6.87,-164.29 1.03,-30.2 2.18,-63.38 3.9,-106.44l0.31 -7.47c70.98,-17.97 142.01,-35.79 213.03,-53.59l88 55.01 -11.39 184.4c88.7,-16.69 192.7,-27.79 285.85,-17.01 60.1,6.96 115.77,23.07 160.22,52.6 30.95,20.58 74.19,43.48 99.57,64.6 19.58,16.27 36.3,35.77 49.34,58.91 25.19,44.71 33.61,92.76 30.07,141.56 26.72,-56.88 62.85,-110 104.61,-155.38 62.91,-68.37 138.83,-119.41 214.89,-139.62 44.03,-11.71 88.2,-13.11 130.04,-1.66 7.54,2.07 14.73,4.6 21.52,7.52 6.93,2.95 13.5,6.4 19.68,10.24 30.89,19.21 61.13,39.46 92.06,58.6l0.98 0.71c36.1,28.9 55.24,73.3 60.01,124.29 5.05,54.05 -6.06,115.75 -30.16,173.95 -29.79,71.93 -79.98,139.43 -137.25,198.01 -68.12,69.66 -146.47,126.93 -212.44,164.1 2.87,5.08 5.89,9.94 9.03,14.55 4.39,6.44 9.07,12.45 13.96,18 25.05,6.65 50.99,6.95 75.28,1.77 25.59,-5.46 49.34,-17.01 68.24,-33.62 71.62,-62.92 127.98,-138.44 175.5,-218.29 45.72,-76.8 83.56,-158.19 119.01,-236.32l-54.07 -20.62 47.7 -167.75c40.89,16.75 81.86,31.84 123.43,46.78 90.74,32.6 176.04,63.25 232.73,110.64 48.34,23.66 88.76,51.16 115.24,87.25 27.06,36.89 39.38,82.21 30.55,140.68 -0.48,10.04 -1.39,19.99 -2.64,29.78l100.43 -101.89 78.6 50.39 0.77 -0.78 145.23 93.11 -32.38 36.59c-80.43,91.61 -249.96,284.74 -371.17,336.89 -24.77,10.67 -48.05,16.54 -69.25,17.98 -22.44,1.52 -42.61,-1.94 -59.85,-9.89 -22.17,-10.35 -60.1,-37.21 -82.77,-51.27 -18.35,-9.31 -33.06,-23.82 -43.35,-42.9 -9.91,-18.38 -15.72,-41.05 -16.72,-67.43 -2.46,-65.13 27.25,-133.01 55.23,-196.93 21.17,-48.36 41.34,-94.43 44.77,-133.61 0.64,-7.32 -0.52,-14.24 -3.06,-20.76 -0.8,-2.04 -1.74,-4.06 -2.8,-6.06 -43.63,95.77 -113.53,241.91 -206.21,365.28 -99.11,131.93 -224.27,237.73 -371.68,229.36 -20.43,-1.15 -40.45,-4.44 -59.78,-9.53 -20.06,-5.28 -39.54,-12.57 -58.15,-21.5 -33.49,-16.09 -78.36,-43.25 -118.79,-72.84 -31.5,-23.05 -60.55,-47.78 -79.85,-70.22 -10.41,5.58 -20.91,11.37 -31.59,17.36 -11.52,6.47 -22.61,12.83 -33.46,19.15 13.7,59.84 15.71,123.49 7.92,186.12 -8.48,68.09 -28.59,135.18 -57.88,195.01 -20.34,41.53 -45.22,80.66 -73.28,116.69 -72.53,93.13 -166.51,165.85 -258.88,207.19 -93.58,41.89 -186,51.76 -253.84,18.53 -10.33,-5.06 -20.15,-11.16 -29.29,-18.27 -4.53,-3.53 -8.9,-7.21 -13.08,-11 -3.57,-3.2 -6.97,-6.5 -10.21,-9.84 -9.92,-3.04 -19.46,-6.83 -28.54,-11.4 -9.71,-4.88 -18.94,-10.67 -27.54,-17.37 -54.5,-42.44 -77.78,-97.92 -77.59,-159.94 0.21,-68.41 29.29,-144.59 76.45,-219.68 28.95,-46.07 64.65,-91.81 103.69,-135.07 22.58,-25.03 46.3,-49.26 70.49,-72.31l-7.92 4.99 -89.44 -55.91c1.09,-61.7 2.22,-123.43 3.5,-185.13l3.77 -2.9c63.27,-48.72 197.8,-166.53 281.69,-280.01 49.82,-67.38 81.57,-132.59 68.53,-178.82 -40.17,-5.33 -90.54,-2.69 -140.7,3.53 -77.91,9.67 -154.78,27.97 -193.1,38.73l-44.63 739.86 -199.26 107.85 -72.85 -17.83c-41.27,23.93 -88.16,42.81 -136.6,52.64 -44.86,9.1 -91.07,10.45 -135.37,0.92l-0.12 -0.04c-22.96,-5.18 -42.5,-12.94 -59.03,-22.59 -15.75,-9.19 -28.9,-20.17 -39.81,-32.32 -151.51,-48.04 -130.14,-216.25 -124,-264.55l0.99 -8.22 1.08 -46.69 -48.78 32.85c33.23,148.35 -9.18,305.18 -90.27,433.1 -41.67,65.74 -93.65,123.95 -150.84,169.49 -57.39,45.69 -120.17,78.68 -183.25,93.8 -76.65,18.38 -153.63,10.44 -221.97,-32.88l-79.37 -49.61c-4.3,-2.79 -8.4,-5.71 -12.28,-8.72 -19.6,-15.47 -35.65,-34.43 -47.61,-56.5 -35.45,-65.46 -25.2,-145.1 11.69,-226.66 36.15,-79.95 98.08,-162.07 167.24,-234.25 74.49,-77.76 157.59,-144.2 225.98,-184.09l-85.23 -49.03 -18.76 -6.81c-18.29,-6.56 -37.96,-13.63 -60.34,-23.36l-5.95 -2.6 -0.77 -196.93 5.96 -2.65c35.8,-15.88 71.02,-45.25 103.32,-81.69 37.23,-42 70.46,-93.36 96.3,-144.46 13.27,-26.26 23.41,-64.93 29.09,-107.69 8.06,-60.63 9.85,-160.61 -19.84,-216.03 -50.44,-1.53 -98.07,12.14 -144.79,30.12 -47.28,18.17 -96.51,42.89 -143.41,69.39l-60.88 906.49 -171.65 153.17 -6.34 -3.95zm2319.59 -602c-38.22,77.11 -94.57,148.97 -147.94,204.13l12.3 8.26c25.01,-14.35 50.05,-28.13 74.81,-41.1 22.9,-11.98 45.51,-23.27 67.61,-33.66 -10.78,-44.9 -12.49,-91.37 -6.78,-137.63zm-1982.74 831.36c47.53,-19.8 95.6,-58.27 137.96,-105.72 44.16,-49.47 81.97,-108.56 106.46,-166.43 -16.46,12.58 -33.51,26.15 -50.62,40.55 -26.73,22.49 -53.71,47.12 -79.03,73.35 -29.14,30.18 -56,62.94 -77.62,94.39 -15.43,22.42 -28.18,44.19 -37.15,63.86zm1493.19 84c50.16,-27.72 113.65,-83.36 168.03,-148.26 44.64,-53.27 82.91,-112.56 102.29,-167.37 -59.34,50.18 -131.28,118.71 -187.08,185.3 -39.64,47.3 -70.94,93.31 -83.24,130.33zm787.26 -942.82c29.62,-28.04 52.3,-54.68 69.49,-79.31 18.96,-27.17 31.27,-51.9 38.9,-73.4 -22.66,17.93 -45.79,42.12 -65.98,71.03 -16.9,24.21 -31.71,51.74 -42.41,81.68zm-1381.76 -417.75l-19.4 240.96c-65.82,30.67 -131.57,61.52 -197.33,92.33l-89.93 -44.66 18.26 -235.7c66.25,-36.39 143.69,-78.7 210.03,-114.91l78.37 61.98z"/>
  <path class="fil2" d="M3148.05 1316.71l-31.61 916.17 142.58 -127.23 61.06 -909.02 4.68 -2.67c48.97,-27.89 100.79,-54.07 150.83,-73.31 50.56,-19.45 99.34,-31.83 141.65,-31.83 47.25,0 78.19,17.82 98.53,46.45 19.65,27.67 28.79,65.17 33.15,106.11 4.63,43.82 3.38,91.92 -2.47,135.97 -5.97,44.94 -16.77,85.88 -31.03,114.09 -26.53,52.46 -60.75,105.3 -99.2,148.68 -32.3,36.45 -67.7,66.32 -104.24,83.93l0.67 171.01c19.45,8.23 36.82,14.48 53.07,20.3 43,15.43 78.62,28.23 124.69,66.63l11.34 9.45 -12.98 7c-69.52,37.49 -158.21,106.9 -237.29,189.44 -67.66,70.63 -128.16,150.76 -163.34,228.47 -34.46,76.11 -44.48,149.68 -12.54,208.92 7.94,14.74 18.53,28.68 31.98,41.59 3.46,3.19 6.97,6.17 10.43,8.87 3.56,2.74 7.16,5.3 10.73,7.61 63.45,40.21 135.15,47.52 206.68,30.37 60.09,-14.41 120.22,-46.08 175.43,-90.04 55.41,-44.12 105.86,-100.65 146.38,-164.57 79.69,-125.72 120.9,-279.89 86.22,-424.51l-1.6 -6.68 5.66 -3.86c35.54,-24.27 71.62,-48.17 105.39,-70.53l62.87 -41.8c-1.49,63.17 1.42,138.04 -5.51,199.12 -5.95,46.47 -27.11,212.79 127.93,247.89 55.97,12.02 115.36,5.51 170.75,-12.36 63.89,-20.62 122.39,-56.33 164.33,-96.17l17.72 -16.83 -2.93 81.48 170.81 -92.45 44.83 -742.81 6.76 -1.98c48.9,-14.29 184.14,-46.65 291.34,-47.83 67.62,-0.74 124.84,11.17 145.48,47.83 29.48,52.38 -1.02,127.38 -56,204.5 -82.87,116.22 -222.01,239.11 -289.61,291.74l-2.87 151.65c48.9,-29.32 107.31,-57.35 160.52,-74.1 49.93,-15.71 95.85,-21.54 126.41,-9.55l18.75 7.36 -17.22 10.46c-63.02,38.24 -137.75,96.39 -207.63,164.29 -61.27,59.52 -118.73,126.49 -161.13,193.99 -45.29,72.11 -73.21,144.69 -73.41,209.06 -0.18,55.95 20.82,105.99 69.93,144.24 8,6.23 16.65,11.59 25.79,16.07 62.24,30.48 148.6,20.73 236.96,-18.83 89.57,-40.09 180.79,-110.71 251.3,-201.25 27.22,-34.94 51.35,-72.9 71.08,-113.19 28.29,-57.78 47.73,-122.68 55.94,-188.67 7.82,-62.91 5.45,-126.74 -9.18,-186.18l-1.78 -7.21 6.43 -3.76c20.47,-12.01 40.03,-23.17 59.27,-33.7 19.53,-10.68 38.79,-20.76 58.33,-30.45l9.46 -4.7 4.13 9.78c20.99,49.8 59.84,97.48 109.52,132.74 45.57,32.33 100.22,54.14 158.46,57.44 140.91,8 261.97,-96.66 358.11,-226.07 97.26,-130.9 169.11,-287.3 210.79,-379.6l4.58 -10.15 9.6 5.66c23.52,13.88 48.53,28.97 67.5,46.66 20.33,18.95 33.64,40.76 31.36,66.93 -3.7,42.29 -24.53,89.88 -46.41,139.84 -27.11,61.92 -55.89,127.68 -53.59,188.28 0.73,19.35 4.35,36.33 10.5,50.63 7.55,17.53 18.99,30.99 33.59,39.8 14.77,8.91 32.98,13.24 53.9,12.46 19.92,-0.74 42.37,-6.15 66.76,-16.65 117.19,-50.42 284.63,-241.17 364.07,-331.65l16.95 -19.27 -111.96 -71.79 -292.49 296.74 14.96 -42.24c7.22,-20.41 15.49,-40.95 23.88,-61.81 24.62,-61.22 50.47,-125.43 53.77,-197.31l0.08 -1.05c23.75,-156.26 -121.86,-208.58 -286.01,-267.54 -34.19,-12.28 -69.21,-24.86 -103.64,-38.67l-36.6 128.72 56.79 21.67 -4.37 9.65c-36.83,81.3 -76.04,166.55 -124.49,247.93 -48.52,81.53 -106.13,158.69 -179.48,223.13 -10.35,9.09 -21.93,16.85 -34.33,23.1 -33.01,16.66 -72.24,23 -110.67,16.64 -38.48,-6.36 -76.23,-25.43 -106.21,-59.56 -11.28,-12.83 -21.45,-27.8 -30.11,-44.96l-4.35 -8.61 8.49 -4.63c66.2,-36.12 146.68,-94.07 216.32,-165.29 55.7,-56.96 104.39,-122.36 133.11,-191.69 6.77,-16.34 12.46,-32.92 16.98,-49.43 14.51,-53 17.29,-105.91 5.75,-149.82 -11.2,-42.68 -36.12,-76.82 -77.11,-93.79 -5.56,-2.29 -11.28,-4.26 -17.14,-5.86 -38.26,-10.47 -78.93,-9.1 -119.72,1.74 -72.29,19.21 -144.84,68.15 -205.29,133.84 -60.68,65.93 -109.03,148.6 -132.69,234.99 -18.41,67.24 -21.84,136.76 -4.42,202.3l2.14 8.08 -7.61 3.52c-24.58,11.38 -49.43,23.71 -74.26,36.7 -26.47,13.86 -53.08,28.56 -79.46,43.77l-5.33 3.07 -21.89 -14.61c-32.24,-21.75 -54.81,-37.01 -102.39,-37.74l-24.44 -0.38 17.68 -16.81c70.5,-67.07 153.27,-169.26 192.33,-275.99 28.24,-77.15 33.52,-156.65 -5.81,-226.45 -39.18,-69.53 -115.09,-102.82 -202.74,-114.95 -129.6,-17.93 -284.65,10.28 -387.35,36.56l-13.26 3.4 16.06 -259.93 -181.23 45.58c-1.59,40.31 -2.64,70.82 -3.6,98.8 -1.79,52.38 -3.3,95.99 -7.21,171.31l-0.34 6.63 -166.28 59.69 -1.46 166.61c18.68,-7.23 42.22,-15.42 67.51,-24.21 24.77,-8.61 51.29,-17.84 77.22,-27.58l14.4 -5.41 -0.92 15.34c-1.2,20.15 -2.2,39.56 -3.2,59.01 -10.23,199.65 -20.68,403.19 -197.06,555.52 -25.84,22.31 -45.11,35.82 -61.62,43.85 -17.35,8.42 -31.69,10.98 -47.05,11.18l-0.12 0.04c-2.63,0 -13.03,-1.5 -22.45,-3.15 -8.04,-1.41 -15.87,-3.07 -18.47,-4.17 -11.89,-5 -18.86,-19.14 -22.74,-36.17 -5.13,-22.61 -5.3,-51.4 -4.5,-66.68l32.97 -480.55 -439.99 270.21 -5.54 -4.86c-20.64,-18.16 -42.69,-33.87 -65.09,-47.56 -22.63,-13.82 -45.57,-25.6 -67.81,-35.76l-13.39 -6.12 10.65 -10.17c87.09,-83.12 138.61,-170.72 166.58,-264.81 28.08,-94.46 32.62,-195.83 25.72,-305.95 -5.09,-81.21 -33.48,-156.26 -85.13,-208.84 -45.9,-46.72 -110.48,-75.84 -193.77,-75.84 -197.02,6.53 -364.41,116.37 -521.68,219.56 -28.31,18.57 -56.31,36.95 -84.44,54.68l61.13 140.11 76.5 -54.6 -0.7 20.17zm1891.27 1071.57c90.39,-97.35 201.58,-189.3 244.86,-213.32l8.55 -4.75 4.92 8.46c40.23,69.25 -0.86,173.18 -68.68,267.25 -29.95,41.54 -65.09,81.25 -100.55,115.1 -35.6,33.98 -71.71,62.21 -103.44,80.65 -39.62,23.03 -73.64,30.93 -93.84,16.71 -6,-3.97 -10.93,-8.57 -14.8,-13.71 -20.5,-27.14 -11.97,-67.85 13.86,-114.39 24.34,-43.86 64.28,-93.7 109.12,-142zm857.05 -792.22c-33.7,55.23 -93.76,121.41 -197.26,191.38l-12.97 8.77 -2.46 -15.49c-13.1,-82.33 10.35,-158.88 47.28,-219.36 22.67,-37.12 50.52,-68.29 78.09,-91.03 28.11,-23.18 56.34,-37.83 79.04,-41.44 13.41,-2.13 25.26,-0.55 34.6,5.15 2.1,1.29 4.05,3.19 5.69,5.63 5.6,8.35 10.23,28.21 6.54,55.94 -3.5,26.26 -14.28,60.68 -38.55,100.45zm-2212.11 598.6c46.62,-34.73 87.28,-60.98 110.08,-75.41l13.58 -8.6 1.65 16.02c1.71,16.6 1.15,34.43 -1.39,53.01 -10.92,79.79 -58.97,175.15 -122.49,252.28 -63.96,77.65 -144.05,137.31 -218.56,144.98 -12,1.23 -23.9,1.13 -35.56,-0.44 -4.15,-0.41 -7.71,-0.97 -10.59,-1.59 -3.51,-0.75 -6.43,-1.72 -8.68,-2.8l-3.09 -1.5 -1.52 -3.07c-11.25,-22.87 -1.05,-61.02 22.6,-104.29 24.44,-44.74 63.44,-96.11 107.36,-141.61 47.05,-48.74 99.87,-92.16 146.61,-126.98zm613.29 -749.67l16.51 -204.99 -168.06 91.95 -14.79 190.88 166.34 -77.84z"/>
 </g>
</svg>
