<?xml version="1.0" encoding="UTF-8" standalone="no"?>
<!-- Created with Inkscape (http://www.inkscape.org/) -->
<svg xmlns:svg="http://www.w3.org/2000/svg" xmlns="http://www.w3.org/2000/svg" version="1.0" width="623" height="62" viewBox="-0.542 -0.277 623 62" id="svg2" xml:space="preserve">
	<defs id="defs4">
	</defs>
	<g id="g6">
		<path d="M 23.141,51.335 L 45.023,51.335 C 80.867,51.335 100.674,44.793 100.674,30.602 C 100.674,17.75 77.538,10.183 47.531,10.183 L 23.141,10.183 L 23.141,51.335 M 2.298,3.245 L 45.235,3.245 C 88.377,3.245 122.768,13.335 122.768,30.278 C 122.768,48.742 93.168,58.271 45.235,58.271 L 2.298,58.271 L 2.298,3.245 z " style="stroke: rgb(0, 0, 0);" id="path8"/>
		<path d="M 23.141,51.335 L 45.023,51.335 C 80.867,51.335 100.674,44.793 100.674,30.602 C 100.674,17.75 77.538,10.183 47.531,10.183 L 23.141,10.183 L 23.141,51.335 z M 2.298,3.245 L 45.235,3.245 C 88.377,3.245 122.768,13.335 122.768,30.278 C 122.768,48.742 93.168,58.271 45.235,58.271 L 2.298,58.271 L 2.298,3.245 z " style="stroke: rgb(0, 0, 0); stroke-width: 4.5955;" id="path10"/>
		<path d="M 244.413,12.309 C 235.239,10.262 225.033,9.233 214.41,9.233 C 180.852,9.233 158.547,18.379 158.547,30.763 C 158.547,43.693 183.139,52.279 213.364,52.279 C 223.785,52.279 237.748,51.254 245.042,49.606 L 246.289,57.252 C 235.239,58.985 221.697,59.221 213.156,59.221 C 167.095,59.221 136.453,48.027 136.453,30.52 C 136.453,13.574 168.965,2.298 213.364,2.298 C 224.616,2.298 235.663,2.927 246.081,4.667 L 244.413,12.309 z " style="stroke: rgb(0, 0, 0);" id="path12"/>
		<path d="M 244.413,12.309 C 235.239,10.262 225.033,9.233 214.41,9.233 C 180.852,9.233 158.547,18.379 158.547,30.763 C 158.547,43.693 183.139,52.279 213.364,52.279 C 223.785,52.279 237.748,51.254 245.042,49.606 L 246.289,57.252 C 235.239,58.985 221.697,59.221 213.156,59.221 C 167.095,59.221 136.453,48.027 136.453,30.52 C 136.453,13.574 168.965,2.298 213.364,2.298 C 224.616,2.298 235.663,2.927 246.081,4.667 L 244.413,12.309 z " style="stroke: rgb(0, 0, 0); stroke-width: 4.5955;" id="path14"/>
		<polygon points="263.584,3.245 284.434,3.245 284.434,51.335 345.291,51.335 345.291,58.271 263.584,58.271 263.584,3.245" style="stroke: rgb(0, 0, 0);" id="polygon16"/>
		<polygon points="263.584,3.245 284.434,3.245 284.434,51.335 345.291,51.335 345.291,58.271 263.584,58.271 263.584,3.245" style="stroke: rgb(0, 0, 0); stroke-width: 4.5955;" id="polygon18"/>
		<path d="M 381.057,29.334 L 401.684,29.334 C 414.608,29.334 430.868,26.9 430.868,19.641 C 430.868,12.703 411.689,10.183 398.769,10.183 L 381.057,10.183 L 381.057,29.334 M 360.221,3.245 L 398.345,3.245 C 428.157,3.245 452.957,7.186 452.957,19.716 C 452.957,31.935 427.732,36.279 401.489,36.279 L 381.056,36.279 L 381.056,58.27 L 360.22,58.27 L 360.22,3.245 L 360.221,3.245 z " style="stroke: rgb(0, 0, 0);" id="path20"/>
		<path d="M 381.057,29.334 L 401.684,29.334 C 414.608,29.334 430.868,26.9 430.868,19.641 C 430.868,12.703 411.689,10.183 398.769,10.183 L 381.057,10.183 L 381.057,29.334 L 381.057,29.334 z M 360.221,3.245 L 398.345,3.245 C 428.157,3.245 452.957,7.186 452.957,19.716 C 452.957,31.935 427.732,36.279 401.489,36.279 L 381.056,36.279 L 381.056,58.27 L 360.22,58.27 L 360.22,3.245 L 360.221,3.245 z " style="stroke: rgb(0, 0, 0); stroke-width: 4.5955;" id="path22"/>
		<polygon points="466.854,3.245 487.697,3.245 487.697,26.265 557.311,26.265 557.311,3.245 578.146,3.245 578.146,58.271 557.311,58.271 557.311,33.203 487.697,33.203 487.697,58.271 466.854,58.271 466.854,3.245" style="stroke: rgb(0, 0, 0);" id="polygon24"/>
		<polygon points="466.854,3.245 487.697,3.245 487.697,26.265 557.311,26.265 557.311,3.245 578.146,3.245 578.146,58.271 557.311,58.271 557.311,33.203 487.697,33.203 487.697,58.271 466.854,58.271 466.854,3.245" style="stroke: rgb(0, 0, 0); stroke-width: 4.5955;" id="polygon26"/>
		<rect width="20.847" height="55.026001" x="598.88702" y="3.2449999" style="stroke: rgb(0, 0, 0);" id="rect28"/> 
		<rect width="20.844" height="55.026001" x="598.88702" y="3.2449999" style="stroke: rgb(0, 0, 0); stroke-width: 4.5955;" id="rect30"/> 
		<rect width="67.473999" height="5.677" x="153.24899" y="26.583" style="stroke: rgb(0, 0, 0);" id="rect32"/> 
		<rect width="67.473999" height="5.6739998" x="153.24899" y="26.583" style="stroke: rgb(0, 0, 0); stroke-width: 4.5955;" id="rect34"/> 
	</g>
</svg>