<svg xmlns="http://www.w3.org/2000/svg" xmlns:xlink="http://www.w3.org/1999/xlink" width="130" height="50" viewBox="0 0 130 50">
  <defs>
    <clipPath id="clip-path">
      <rect id="사각형_13607" data-name="사각형 13607" width="130" height="50" fill="none"/>
    </clipPath>
  </defs>
  <g id="logo" clip-path="url(#clip-path)">
    <g id="그룹_12899" data-name="그룹 12899">
      <path id="패스_62372" data-name="패스 62372" d="M63.514,95.309q2.4,0,2.4,1.45v1.194q0,1.431-2.4,1.433H57.779v-.991h5.735c.753,0,1.128-.149,1.128-.441V96.759c0-.307-.374-.46-1.128-.46H59.941c-1.6,0-2.4-.481-2.4-1.451v-.732q0-1.452,2.4-1.452h5.548v.992H59.941q-1.125,0-1.125.46v.732q0,.461,1.125.461Z" transform="translate(-42.947 -69.157)" fill="#003b5c"/>
      <path id="패스_62373" data-name="패스 62373" d="M177.1,95.309c1.6,0,2.4.484,2.4,1.45v1.194c0,.954-.8,1.433-2.4,1.433h-5.738v-.991H177.1c.75,0,1.128-.149,1.128-.441V96.759c0-.307-.379-.46-1.128-.46h-3.572c-1.6,0-2.4-.481-2.4-1.451v-.732q0-1.452,2.4-1.452h5.548v.992h-5.548c-.749,0-1.128.154-1.128.46v.732c0,.307.379.461,1.128.461Z" transform="translate(-127.723 -69.157)" fill="#003b5c"/>
      <path id="패스_62374" data-name="패스 62374" d="M424.326,95.309q2.4,0,2.4,1.45v1.194q0,1.431-2.4,1.433h-5.738v-.991h5.738c.753,0,1.127-.149,1.127-.441V96.759c0-.307-.374-.46-1.127-.46h-3.569c-1.6,0-2.4-.481-2.4-1.451v-.732q0-1.452,2.4-1.452H426.3v.992h-5.548c-.753,0-1.127.154-1.127.46v.732c0,.307.374.461,1.127.461Z" transform="translate(-312.229 -69.157)" fill="#003b5c"/>
      <path id="패스_62375" data-name="패스 62375" d="M238.906,92.665h-8.5v.992h3.613v5.729h1.269V93.656h3.617Z" transform="translate(-171.957 -69.157)" fill="#003b5c"/>
      <path id="패스_62376" data-name="패스 62376" d="M298.93,93.656v-.992h-8.151v6.715h8.148v-.993H292.05V96.329h6.59v-.991h-6.59V93.656Z" transform="translate(-217.013 -69.157)" fill="#003b5c"/>
      <path id="패스_62377" data-name="패스 62377" d="M121.062,92.665h-1.585l-3.442,3.2-3.443-3.2h-1.587l4.395,4.095v2.626h1.269V96.761Z" transform="translate(-82.845 -69.157)" fill="#003b5c"/>
      <path id="패스_62378" data-name="패스 62378" d="M359.054,92.665l-3.848,5.294-3.845-5.294h-1.27v6.721h1.27V94.351l3.659,5.034h.377l3.657-5.034v5.034h1.271V92.665Z" transform="translate(-261.279 -69.157)" fill="#003b5c"/>
      <path id="패스_62379" data-name="패스 62379" d="M0,39.994H2.65V32.625H19.881v7.369h2.652V29.949H0Z" transform="translate(0 -22.352)" fill="#003b5c"/>
      <rect id="사각형_13601" data-name="사각형 13601" width="2.65" height="5.262" transform="translate(0 0)" fill="#e4002b"/>
      <rect id="사각형_13602" data-name="사각형 13602" width="2.652" height="5.262" transform="translate(19.881 0)" fill="#e4002b"/>
      <path id="패스_62380" data-name="패스 62380" d="M100.493,34.321v1.3a4.385,4.385,0,0,0,4.374,4.372h18.8V29.949h-18.8a4.385,4.385,0,0,0-4.374,4.372m20.52,3.022H104.867a1.746,1.746,0,0,1-1.723-1.722V34.347a1.746,1.746,0,0,1,1.723-1.723h16.146Z" transform="translate(-75 -22.352)" fill="#003b5c"/>
      <path id="패스_62381" data-name="패스 62381" d="M128.143,4.093h-.008A4.244,4.244,0,0,0,123.9,0H106.494V2.651H123.9a1.588,1.588,0,0,1,1.575,1.442V5.262h2.665Z" transform="translate(-79.478)" fill="#e4002b"/>
      <rect id="사각형_13603" data-name="사각형 13603" width="2.65" height="10.045" transform="translate(52.501 7.598)" fill="#003b5c"/>
      <rect id="사각형_13604" data-name="사각형 13604" width="2.651" height="10.045" transform="translate(72.374 7.598)" fill="#003b5c"/>
      <path id="패스_62382" data-name="패스 62382" d="M209.642,4.093a1.588,1.588,0,0,1,1.575-1.442h14.042a1.586,1.586,0,0,1,1.574,1.442h.012V5.262H229.5V4.093h-.01A4.243,4.243,0,0,0,225.259,0H211.217a4.242,4.242,0,0,0-4.233,4.093V5.262h2.658Z" transform="translate(-154.476)" fill="#e4002b"/>
      <rect id="사각형_13605" data-name="사각형 13605" width="2.651" height="10.045" transform="translate(106.345 7.598)" fill="#003b5c"/>
      <rect id="사각형_13606" data-name="사각형 13606" width="2.65" height="10.045" transform="translate(126.219 7.598)" fill="#003b5c"/>
      <path id="패스_62383" data-name="패스 62383" d="M421.866,4.093a1.586,1.586,0,0,1,1.574-1.442h14.043a1.586,1.586,0,0,1,1.575,1.442h.012V5.262h2.658V4.093h-.011A4.242,4.242,0,0,0,437.482,0H423.439a4.242,4.242,0,0,0-4.232,4.093V5.262h2.659Z" transform="translate(-312.862)" fill="#e4002b"/>
      <path id="패스_62384" data-name="패스 62384" d="M331.354,30.149v2.909a4.29,4.29,0,0,1-4.286,4.285H316.863a4.29,4.29,0,0,1-4.286-4.285V30.149c0-.068,0-.134,0-.2h-2.65c0,.066,0,.132,0,.2v2.909a6.957,6.957,0,0,0,6.936,6.935h10.205A6.956,6.956,0,0,0,334,33.059V30.149c0-.068-.008-.134-.01-.2h-2.65c0,.066.01.132.01.2" transform="translate(-231.303 -22.352)" fill="#003b5c"/>
      <path id="패스_62385" data-name="패스 62385" d="M317.493,2.653H327.7a4.284,4.284,0,0,1,3.937,2.611h2.784A6.956,6.956,0,0,0,327.7,0H317.493a6.957,6.957,0,0,0-6.722,5.262h2.785a4.284,4.284,0,0,1,3.937-2.611" transform="translate(-231.934 -0.001)" fill="#e4002b"/>
      <path id="패스_62386" data-name="패스 62386" d="M70.541,167.8a5.049,5.049,0,0,0-1.7.292v.835a4.92,4.92,0,0,1,1.532-.292c.929,0,1.083.321,1.083,1.117v.282h-.823c-1.486,0-2.4.312-2.4,1.594v.175c0,1.078.46,1.573,1.485,1.573a4.168,4.168,0,0,0,1.781-.534l.1.437h.853v-3.536c0-1.029-.259-1.943-1.906-1.943m.92,4.313a3.851,3.851,0,0,1-1.581.427c-.431,0-.652-.165-.652-.68v-.137c0-.728.306-.922,1.418-.922h.814Z" transform="translate(-50.923 -125.234)" fill="#201d1e"/>
      <path id="패스_62387" data-name="패스 62387" d="M301.388,167.842a2.172,2.172,0,0,0-2.333,2.443v.678a2.34,2.34,0,1,0,4.676,0v-.678a2.175,2.175,0,0,0-2.343-2.443m1.348,3.122c0,1.155-.507,1.6-1.348,1.6s-1.338-.445-1.338-1.6v-.678c0-1.154.506-1.6,1.338-1.6s1.348.445,1.348,1.6Z" transform="translate(-223.19 -125.264)" fill="#201d1e"/>
      <path id="패스_62388" data-name="패스 62388" d="M327.825,167.841a3.454,3.454,0,0,0-1.721.611,1.46,1.46,0,0,0-1.377-.611,2.914,2.914,0,0,0-1.521.533l-.1-.418h-.88v5.353h.985v-4.1a2.591,2.591,0,0,1,1.377-.5c.564,0,.736.3.736.932v3.665h.986v-3.927a.97.97,0,0,0-.01-.174,2.7,2.7,0,0,1,1.387-.5c.564,0,.737.3.737.932v3.665h.985v-3.927c0-1-.468-1.542-1.588-1.542" transform="translate(-240.486 -125.263)" fill="#201d1e"/>
      <path id="패스_62389" data-name="패스 62389" d="M358.944,167.839a3.582,3.582,0,0,0-1.807.544l-.1-.427h-.879v7.283h.985v-2.066a4.37,4.37,0,0,0,1.358.242,1.986,1.986,0,0,0,2.275-2.239v-1.417a1.738,1.738,0,0,0-1.835-1.92m.841,3.229c0,.747-.144,1.493-1.358,1.493a4.32,4.32,0,0,1-1.281-.223v-3.123a3.327,3.327,0,0,1,1.578-.5c.869,0,1.061.495,1.061,1.348Z" transform="translate(-265.809 -125.261)" fill="#201d1e"/>
      <path id="패스_62390" data-name="패스 62390" d="M380.328,167.84a5.05,5.05,0,0,0-1.693.291v.834a4.935,4.935,0,0,1,1.53-.29c.928,0,1.081.319,1.081,1.114v.282h-.823c-1.482,0-2.4.311-2.4,1.59v.174c0,1.077.46,1.572,1.482,1.572a4.157,4.157,0,0,0,1.779-.533l.1.436h.851v-3.529c0-1.028-.258-1.939-1.9-1.939m.918,4.305a3.851,3.851,0,0,1-1.577.427c-.43,0-.651-.165-.651-.678v-.136c0-.727.306-.921,1.416-.921h.812Z" transform="translate(-282.125 -125.262)" fill="#201d1e"/>
      <path id="패스_62391" data-name="패스 62391" d="M402.734,167.841a3.809,3.809,0,0,0-1.76.533l-.1-.418H400v5.353h.985v-4.1a3.135,3.135,0,0,1,1.615-.5c.651,0,.765.35.765.979v3.618h.985v-3.927c0-.989-.43-1.542-1.616-1.542" transform="translate(-298.527 -125.263)" fill="#201d1e"/>
      <path id="패스_62392" data-name="패스 62392" d="M424.143,168.3l-1.166,3.355a8.172,8.172,0,0,0-.287,1.106h-.01a6.549,6.549,0,0,0-.3-1.106l-1.147-3.355h-1.071l2.008,5.343-.718,1.963h.985l2.7-7.306Z" transform="translate(-313.577 -125.605)" fill="#201d1e"/>
      <path id="패스_62393" data-name="패스 62393" d="M282.3,169.132l-.022.005a5.606,5.606,0,0,1-1.584.2c-1.836,0-1.981-.84-1.981-1.938v-1.086c0-.955.153-1.887,1.99-1.887a6.268,6.268,0,0,1,1.481.162v-.834a5,5,0,0,0-1.55-.191c-2.066,0-2.909.828-2.909,2.861v1.009c0,2.023.791,2.775,2.917,2.775a5.468,5.468,0,0,0,1.592-.226l.041-.014c.026-.009.054-.017.078-.027l.019-.008v-.821l-.039.012-.032.009" transform="translate(-207.27 -122.069)" fill="#201d1e"/>
      <path id="패스_62394" data-name="패스 62394" d="M181.792,161.836h-1.8l-1.581,1.956h-.449v-3.717l-1.518.3v7.137h1.518v-2.379h.374l1.717,2.379h1.809l-2.23-3.049Z" transform="translate(-131.685 -119.466)" fill="#201d1e"/>
      <path id="패스_62395" data-name="패스 62395" d="M253.794,161.836H252l-1.58,1.956h-.449v-3.717l-1.519.3v7.137h1.519v-2.379h.374l1.717,2.379h1.809l-2.23-3.049Z" transform="translate(-185.421 -119.466)" fill="#201d1e"/>
      <path id="패스_62396" data-name="패스 62396" d="M103.532,164.149h-2.6V161.27H99.364v7.137h1.569v-2.879h2.6v2.879H105.1V161.27h-1.571Z" transform="translate(-74.157 -120.359)" fill="#201d1e"/>
      <path id="패스_62397" data-name="패스 62397" d="M128.929,166.459a7.172,7.172,0,0,0-1.971.316v1.083a5.928,5.928,0,0,1,1.721-.3c.852,0,1,.24,1,.916v.316h-.745c-1.855,0-2.648.49-2.648,1.639v.3a1.462,1.462,0,0,0,1.639,1.66,3.372,3.372,0,0,0,1.84-.55l.085-.058.148.5h1.158v-3.768c0-1.8-1.072-2.052-2.231-2.052m.755,4.45-.035.022a2.5,2.5,0,0,1-1.23.356c-.449,0-.641-.2-.641-.688v-.1c0-.622.4-.74,1.14-.74h.765Z" transform="translate(-94.253 -124.231)" fill="#201d1e"/>
      <path id="패스_62398" data-name="패스 62398" d="M154.174,166.457a3.717,3.717,0,0,0-1.838.564l-.089.056-.116-.475h-1.188v5.677h1.529v-4.129l.033-.021a2.514,2.514,0,0,1,1.283-.389c.556,0,.661.3.661.843v3.7h1.529v-4.11c0-1.167-.574-1.711-1.8-1.711" transform="translate(-112.652 -124.23)" fill="#201d1e"/>
      <path id="패스_62399" data-name="패스 62399" d="M201.03,166.456c-1.778,0-2.68,1-2.68,2.975s.905,2.975,2.69,2.975,2.68-1,2.68-2.975-.9-2.975-2.69-2.975m0,4.779c-.817,0-1.15-.525-1.15-1.811s.336-1.81,1.161-1.81,1.15.525,1.15,1.81-.336,1.811-1.161,1.811" transform="translate(-148.032 -124.229)" fill="#201d1e"/>
      <path id="패스_62400" data-name="패스 62400" d="M225.773,166.456c-1.778,0-2.68,1-2.68,2.975s.906,2.975,2.69,2.975,2.68-1,2.68-2.975-.9-2.975-2.69-2.975m0,4.779c-.817,0-1.15-.525-1.15-1.811s.336-1.81,1.161-1.81,1.151.525,1.151,1.81-.337,1.811-1.162,1.811" transform="translate(-166.498 -124.229)" fill="#201d1e"/>
    </g>
  </g>
</svg>
