<?xml version="1.0" encoding="UTF-8" standalone="no"?>
<!-- Created with Inkscape (http://www.inkscape.org/) -->

<svg
   xmlns:dc="http://purl.org/dc/elements/1.1/"
   xmlns:cc="http://creativecommons.org/ns#"
   xmlns:rdf="http://www.w3.org/1999/02/22-rdf-syntax-ns#"
   xmlns:svg="http://www.w3.org/2000/svg"
   xmlns="http://www.w3.org/2000/svg"
   xmlns:sodipodi="http://sodipodi.sourceforge.net/DTD/sodipodi-0.dtd"
   xmlns:inkscape="http://www.inkscape.org/namespaces/inkscape"
   width="220"
   height="67"
   id="svg2"
   version="1.1"
   inkscape:version="0.48.2 r9819"
   sodipodi:docname="Mahle_logo.svg">
  <title
     id="title4141">Mahle GmbH logo</title>
  <defs
     id="defs4" />
  <sodipodi:namedview
     id="base"
     pagecolor="#ffffff"
     bordercolor="#666666"
     borderopacity="1.0"
     inkscape:pageopacity="0.0"
     inkscape:pageshadow="2"
     inkscape:zoom="2.5458715"
     inkscape:cx="110"
     inkscape:cy="33.499998"
     inkscape:document-units="px"
     inkscape:current-layer="layer1"
     showgrid="false"
     units="px"
     inkscape:window-width="1024"
     inkscape:window-height="689"
     inkscape:window-x="0"
     inkscape:window-y="27"
     inkscape:window-maximized="1"
     fit-margin-top="0"
     fit-margin-left="0"
     fit-margin-right="0"
     fit-margin-bottom="0" />
  <metadata
     id="metadata7">
    <rdf:RDF>
      <cc:Work
         rdf:about="">
        <dc:format>image/svg+xml</dc:format>
        <dc:type
           rdf:resource="http://purl.org/dc/dcmitype/StillImage" />
        <dc:title>Mahle GmbH logo</dc:title>
        <dc:date>2013-10-28</dc:date>
        <dc:description>Logo for Mahle GmbH, based on GIF raster image logo found at Mahle Web site.</dc:description>
        <dc:publisher>
          <cc:Agent>
            <dc:title>Mahle GmbH</dc:title>
          </cc:Agent>
        </dc:publisher>
        <dc:creator>
          <cc:Agent>
            <dc:title>Hydrargyrum for Wikimedia Commons</dc:title>
          </cc:Agent>
        </dc:creator>
        <dc:source>http://www.mahle.com/</dc:source>
        <dc:subject>
          <rdf:Bag>
            <rdf:li>logo logotype organisation company manufacturer</rdf:li>
          </rdf:Bag>
        </dc:subject>
      </cc:Work>
    </rdf:RDF>
  </metadata>
  <g
     inkscape:label="Layer1"
     inkscape:groupmode="layer"
     id="layer1"
     transform="translate(-501.25321,-635.47495)"
     style="display:inline">
    <g
       id="g4094"
       transform="matrix(0.11759085,0,0,0.11759085,539.49302,590.19448)">
      <g
         transform="translate(-23.161526,744.06402)"
         id="g3990">
        <path
           style="fill:#1e2a63;fill-opacity:1"
           d="m -293.52815,-205.64423 0,-145.01147 170.00337,0 170.003359,0 -0.25336,144.75 -0.25337,144.749999 -39.4999999,0 -39.5000001,0 -0.5,-104.499999 -0.5,-104.5 -24.5,0 -24.499997,0 -0.5,104.5 -0.5,104.499999 -39.500002,0 -39.5,0 -0.5,-104.499999 -0.5,-104.5 -24.5,0 -24.5,0 -0.5,104.5 -0.5,104.499999 -39.75,0.26147 -39.75,0.26148 0,-145.011479 z"
           id="path3082"
           inkscape:connector-curvature="0" />
        <path
           style="fill:#1e2a63;fill-opacity:1"
           d="m 86.46875,-413.03125 0,144.34375 c 0,79.38334 0.31454,144.62704 0.6875,145 0.37296,0.37297 18.26046,0.58129 39.75,0.4375 l 39.0625,-0.28125 0.5,-39.5 0.5,-39.5 29.5,0 29.5,0 0.5,39.5 0.5,39.5 39.5,0 39.5,0 0.25,-144.75 0.25,-144.75 -110,0 -110,0 z m 80.5,80.5 29.5,0 29.5,0 0,29.5 0,29.5 -29.28125,0.28125 c -23.03362,0.20861 -29.36416,0.005 -29.75,-1 -0.26973,-0.70288 -0.36503,-14.1133 -0.21875,-29.78125 l 0.25,-28.5 z"
           transform="translate(0,62.362)"
           id="path3080"
           inkscape:connector-curvature="0" />
        <path
           style="fill:#1e2a63;fill-opacity:1"
           d="m 347.14996,-61.310921 c -0.37296,-0.37296 -0.67811,-65.628109 -0.67811,-145.011449 l 0,-144.33333 39.99146,0 39.99146,0 0.25854,54.75 0.25854,54.75 34.5,0 34.5,0 0.25854,-54.75 0.25854,-54.75 39.99483,0 39.99482,0 -0.25336,144.75 -0.25337,144.749999 -39.5,0 -39.5,0 -0.5,-54.499999 -0.5,-54.5 -34.5,0 -34.5,0 -0.5,54.5 -0.5,54.499999 -39.07189,0.26145 c -21.48954,0.14379 -39.37704,-0.0437 -39.75,-0.41667 z"
           id="path3076"
           inkscape:connector-curvature="0" />
        <path
           style="fill:#1e2a63;fill-opacity:1"
           d="m 617.14416,-61.316921 c -0.36977,-0.36957 -0.67231,-65.622109 -0.67231,-145.005449 l 0,-144.33333 39.9956,0 39.99559,0 0.25441,109.75 0.2544,109.75 44.5,0.5 44.5,0.5 0,34.499997 0,34.500002 -84.07769,0.25564 c -46.24273,0.14061 -84.38023,-0.0469 -84.75,-0.41666 z"
           id="path3074"
           inkscape:connector-curvature="0" />
        <path
           style="fill:#1e2a63;fill-opacity:1"
           d="m 827.14385,-61.317221 c -0.3696,-0.36941 -0.672,-65.621809 -0.672,-145.005149 l 0,-144.33333 90.013,0 90.01295,0 -0.2629,34.75 -0.263,34.75 -49.50005,0.5 -49.5,0.5 0,19.5 0,19.5 49.5,0.5 49.50005,0.5 0,34.5 0,34.5 -49.50005,0.5 -49.5,0.5 0,19.5 0,19.5 49.5,0.5 49.50005,0.5 0,34.499997 0,34.500002 -89.07805,0.25534 c -48.9929,0.14044 -89.3804,-0.0471 -89.75,-0.41666 z"
           id="path3063"
           inkscape:connector-curvature="0" />
      </g>
      <g
         id="text4051"
         style="font-size:64px;font-style:normal;font-variant:normal;font-weight:normal;font-stretch:normal;text-align:start;line-height:125%;letter-spacing:0px;word-spacing:0px;writing-mode:lr-tb;text-anchor:start;fill:#000000;fill-opacity:1;stroke:none;font-family:Helvetica Neue;-inkscape-font-specification:Sans">
        <path
           id="path4056"
           style="font-size:135px;font-style:italic;font-weight:bold;-inkscape-font-specification:Helvetica Neue Bold Italic"
           d="m 91.024386,904.25843 12.960004,-60.75 15.93,0 c 3.77994,8e-5 6.97494,0.58508 9.585,1.755 2.69993,1.08008 4.90493,2.65507 6.615,4.725 1.70992,2.07007 2.92492,4.54507 3.645,7.425 0.80992,2.79006 1.21492,5.94006 1.215,9.45 -8e-5,5.13005 -0.76508,9.94505 -2.295,14.445 -1.44007,4.50004 -3.60007,8.46003 -6.48,11.88 -2.79007,3.42003 -6.30006,6.12002 -10.53,8.1 -4.14005,1.98002 -8.91005,2.97002 -14.31,2.97 l -16.335004,0 m -4.59,-78.57 -20.25,96.39 40.230004,0 c 9.26995,0 17.36994,-1.485 24.3,-4.455 7.01992,-2.96999 12.82492,-7.06499 17.415,-12.285 4.67991,-5.30998 8.18991,-11.56497 10.53,-18.765 2.3399,-7.19996 3.5099,-14.98495 3.51,-23.355 -1e-4,-11.96993 -3.4201,-21.19492 -10.26,-27.675 -6.84008,-6.56991 -17.05507,-9.8549 -30.645,-9.855 l -34.830004,0"
           inkscape:connector-curvature="0" />
        <path
           id="path4058"
           style="font-size:135px;font-style:italic;font-weight:bold;-inkscape-font-specification:Helvetica Neue Bold Italic"
           d="m 179.48103,852.28343 -14.445,69.795 19.035,0 6.48,-30.915 c 0.62997,-2.96997 1.43997,-5.80496 2.43,-8.505 1.07997,-2.78996 2.47497,-5.26496 4.185,-7.425 1.79996,-2.15995 3.95996,-3.86995 6.48,-5.13 2.60996,-1.25995 5.75995,-1.88995 9.45,-1.89 1.34995,5e-5 2.69995,0.13505 4.05,0.405 1.34994,0.27005 2.69994,0.54005 4.05,0.81 l 3.915,-18.63 c -1.98006,-0.26993 -3.96006,-0.40493 -5.94,-0.405 -5.13005,7e-5 -9.90005,1.26007 -14.31,3.78 -4.32004,2.43007 -7.56003,6.07506 -9.72,10.935 l -0.27,-0.27 2.835,-12.555 -18.225,0"
           inkscape:connector-curvature="0" />
        <path
           id="path4060"
           style="font-size:135px;font-style:italic;font-weight:bold;-inkscape-font-specification:Helvetica Neue Bold Italic"
           d="m 253.68673,841.48343 3.51,-15.795 -19.305,0 -3.51,15.795 19.305,0 m -21.465,10.8 -14.715,69.795 19.17,0 14.85,-69.795 -19.305,0"
           inkscape:connector-curvature="0" />
        <path
           id="path4062"
           style="font-size:135px;font-style:italic;font-weight:bold;-inkscape-font-specification:Helvetica Neue Bold Italic"
           d="m 289.16009,922.07843 38.205,-69.795 -20.25,0 -24.705,49.68 -0.27,0 -4.32,-49.68 -19.71,0 9.18,69.795 21.87,0"
           inkscape:connector-curvature="0" />
        <path
           id="path4064"
           style="font-size:135px;font-style:italic;font-weight:bold;-inkscape-font-specification:Helvetica Neue Bold Italic"
           d="m 378.06181,879.68843 -31.995,0 c 0.71998,-1.97996 1.57497,-3.86995 2.565,-5.67 1.07997,-1.79995 2.38497,-3.37495 3.915,-4.725 1.52997,-1.34995 3.32997,-2.42994 5.4,-3.24 2.06996,-0.80994 4.45496,-1.21494 7.155,-1.215 2.78995,6e-5 5.03995,0.45006 6.75,1.35 1.70995,0.81006 3.01495,1.93505 3.915,3.375 0.89995,1.44005 1.48494,3.06005 1.755,4.86 0.35994,1.71005 0.53994,3.46504 0.54,5.265 m -34.02,12.15 51.435,0 c 0.71993,-3.86997 1.07993,-7.51496 1.08,-10.935 -7e-5,-5.03995 -0.81007,-9.44995 -2.43,-13.23 -1.53007,-3.86994 -3.73507,-7.06494 -6.615,-9.585 -2.79006,-2.60993 -6.21006,-4.54493 -10.26,-5.805 -3.96005,-1.25993 -8.37005,-1.88993 -13.23,-1.89 -5.94004,7e-5 -11.29503,1.21507 -16.065,3.645 -4.77002,2.34007 -8.82002,5.53506 -12.15,9.585 -3.24001,3.96005 -5.76001,8.55005 -7.56,13.77 -1.8,5.13004 -2.7,10.48503 -2.7,16.065 0,5.04002 0.72,9.45002 2.16,13.23 1.52999,3.78001 3.64499,6.97501 6.345,9.585 2.69999,2.52 5.93998,4.41 9.72,5.67 3.86997,1.26 8.14497,1.89 12.825,1.89 5.03996,0 9.44996,-0.495 13.23,-1.485 3.86995,-0.99 7.24494,-2.475 10.125,-4.455 2.87994,-2.06999 5.35494,-4.58999 7.425,-7.56 2.06993,-2.96999 3.86993,-6.43498 5.4,-10.395 l -19.17,0 c -0.72005,1.08002 -1.53005,2.20502 -2.43,3.375 -0.81005,1.17002 -1.80005,2.20502 -2.97,3.105 -1.08005,0.90001 -2.38504,1.66501 -3.915,2.295 -1.44004,0.54001 -3.10504,0.81001 -4.995,0.81 -5.22003,1e-5 -9.09003,-1.25999 -11.61,-3.78 -2.52002,-2.51998 -3.78002,-5.80498 -3.78,-9.855 l 0,-1.755 c -2e-5,-0.35997 -2e-5,-0.71997 0,-1.08 -2e-5,-0.35997 0.045,-0.76497 0.135,-1.215"
           inkscape:connector-curvature="0" />
        <path
           id="path4066"
           style="font-size:135px;font-style:italic;font-weight:bold;-inkscape-font-specification:Helvetica Neue Bold Italic"
           d="m 414.67634,852.28343 -14.445,69.795 19.035,0 7.83,-37.125 c 0.53997,-2.42996 1.30497,-4.81496 2.295,-7.155 1.07997,-2.33995 2.38497,-4.40995 3.915,-6.21 1.61997,-1.79995 3.50996,-3.23995 5.67,-4.32 2.24996,-1.16994 4.81496,-1.75494 7.695,-1.755 2.24995,6e-5 4.31995,0.67506 6.21,2.025 1.97995,1.35005 2.96994,3.06005 2.97,5.13 -6e-5,0.99005 -0.18005,2.38505 -0.54,4.185 -0.27005,1.80004 -0.49505,3.24004 -0.675,4.32 l -8.505,40.905 19.17,0 8.64,-40.905 c 0.0899,-0.62996 0.22493,-1.43996 0.405,-2.43 0.26993,-1.07996 0.49493,-2.20495 0.675,-3.375 0.26993,-1.16995 0.49493,-2.29495 0.675,-3.375 0.17992,-1.16995 0.26992,-2.11495 0.27,-2.835 -8e-5,-12.50993 -6.79507,-18.76493 -20.385,-18.765 -10.08004,7e-5 -18.22504,3.87007 -24.435,11.61 l -0.27,0 2.16,-9.72 -18.36,0"
           inkscape:connector-curvature="0" />
        <path
           id="path4068"
           style="font-size:135px;font-style:italic;font-weight:bold;-inkscape-font-specification:Helvetica Neue Bold Italic"
           d="m 540.31704,825.68843 -20.115,96.39 17.55,0 2.295,-10.935 0.27,0 c 1.70998,4.86001 4.54498,8.19 8.505,9.99 4.04997,1.8 8.50497,2.7 13.365,2.7 5.93996,0 11.15995,-1.26 15.66,-3.78 4.49994,-2.52 8.27994,-5.80499 11.34,-9.855 3.05993,-4.13998 5.35493,-8.81998 6.885,-14.04 1.52993,-5.30997 2.29493,-10.66496 2.295,-16.065 -7e-5,-4.04995 -0.49507,-7.87495 -1.485,-11.475 -0.90007,-3.59994 -2.38507,-6.74994 -4.455,-9.45 -1.98007,-2.69993 -4.54506,-4.81493 -7.695,-6.345 -3.15006,-1.61993 -6.97505,-2.42993 -11.475,-2.43 -4.59004,7e-5 -8.46004,0.76507 -11.61,2.295 -3.06003,1.44007 -6.07503,3.78007 -9.045,7.02 l -0.27,0 7.155,-34.02 -19.17,0 m 25.245,39.15 c 4.94995,6e-5 8.45995,1.48506 10.53,4.455 2.06995,2.97005 3.10494,6.66005 3.105,11.07 -6e-5,2.97004 -0.40505,6.16504 -1.215,9.585 -0.72005,3.42003 -1.93505,6.61503 -3.645,9.585 -1.62005,2.88002 -3.73505,5.26502 -6.345,7.155 -2.52004,1.89001 -5.62504,2.83501 -9.315,2.835 -4.41003,1e-5 -7.83003,-1.34999 -10.26,-4.05 -2.43002,-2.78998 -3.64502,-6.34498 -3.645,-10.665 -2e-5,-3.05997 0.35998,-6.34497 1.08,-9.855 0.80998,-3.50996 2.02498,-6.74996 3.645,-9.72 1.70997,-2.96995 3.86997,-5.44495 6.48,-7.425 2.60997,-1.97994 5.80496,-2.96994 9.585,-2.97"
           inkscape:connector-curvature="0" />
        <path
           id="path4070"
           style="font-size:135px;font-style:italic;font-weight:bold;-inkscape-font-specification:Helvetica Neue Bold Italic"
           d="m 633.10634,931.79843 44.415,-79.515 -20.25,0 -24.165,49.95 -0.27,0 -6.075,-49.95 -19.71,0 12.42,69.12 c -0.63002,0.81 -1.26001,1.755 -1.89,2.835 -0.54001,1.08 -1.26001,2.07 -2.16,2.97 -0.81001,0.98999 -1.89001,1.79999 -3.24,2.43 -1.35001,0.71999 -3.15001,1.07999 -5.4,1.08 -1.26,-10e-6 -2.52,-0.13501 -3.78,-0.405 -1.35,-0.27001 -2.655,-0.40501 -3.915,-0.405 l -3.24,15.93 c 1.71001,0.09 3.42,0.22498 5.13,0.405 1.71,0.17998 3.375,0.26998 4.995,0.27 3.59999,-2e-5 6.70499,-0.22502 9.315,-0.675 2.69999,-0.36002 5.08498,-1.08002 7.155,-2.16 2.06998,-1.08002 3.95998,-2.61002 5.67,-4.59 1.70997,-1.89001 3.37497,-4.32001 4.995,-7.29"
           inkscape:connector-curvature="0" />
        <path
           id="path4072"
           style="font-size:135px;font-style:italic;font-weight:bold;-inkscape-font-specification:Helvetica Neue Bold Italic"
           d="m 723.94446,852.28343 -19.98,94.23 19.035,0 7.29,-33.75 0.405,0 c 0.71998,1.89001 1.75498,3.55501 3.105,4.995 1.43998,1.35 3.01498,2.475 4.725,3.375 1.79998,0.9 3.68997,1.575 5.67,2.025 2.06997,0.45 4.09497,0.675 6.075,0.675 6.47996,0 12.05995,-1.305 16.74,-3.915 4.76994,-2.61 8.72994,-6.07499 11.88,-10.395 3.14993,-4.31998 5.48993,-9.22498 7.02,-14.715 1.52993,-5.48997 2.29493,-11.11496 2.295,-16.875 -7e-5,-8.45995 -2.29507,-15.16494 -6.885,-20.115 -4.59006,-4.94993 -11.11505,-7.42493 -19.575,-7.425 -4.32004,7e-5 -8.37004,0.85507 -12.15,2.565 -3.69003,1.71007 -6.61503,4.45506 -8.775,8.235 l -0.27,-0.27 1.89,-8.64 -18.495,0 m 31.455,12.555 c 2.24996,6e-5 4.22996,0.45006 5.94,1.35 1.70995,0.81006 3.10495,1.93505 4.185,3.375 1.16995,1.35005 2.02495,2.97005 2.565,4.86 0.62995,1.89005 0.94495,3.87004 0.945,5.94 -5e-5,3.06004 -0.40505,6.30004 -1.215,9.72 -0.81005,3.42003 -2.07005,6.57003 -3.78,9.45 -1.71005,2.88002 -3.87004,5.26502 -6.48,7.155 -2.61004,1.89001 -5.76004,2.83501 -9.45,2.835 -4.68003,1e-5 -8.14502,-1.34999 -10.395,-4.05 -2.25002,-2.78998 -3.37502,-6.47998 -3.375,-11.07 -2e-5,-2.96997 0.40498,-6.16497 1.215,-9.585 0.89998,-3.50996 2.20498,-6.74996 3.915,-9.72 1.79997,-2.96995 4.00497,-5.39995 6.615,-7.29 2.60997,-1.97994 5.71496,-2.96994 9.315,-2.97"
           inkscape:connector-curvature="0" />
        <path
           id="path4074"
           style="font-size:135px;font-style:italic;font-weight:bold;-inkscape-font-specification:Helvetica Neue Bold Italic"
           d="m 848.18876,879.68843 -31.995,0 c 0.71998,-1.97996 1.57498,-3.86995 2.565,-5.67 1.07998,-1.79995 2.38497,-3.37495 3.915,-4.725 1.52997,-1.34995 3.32997,-2.42994 5.4,-3.24 2.06997,-0.80994 4.45496,-1.21494 7.155,-1.215 2.78996,6e-5 5.03996,0.45006 6.75,1.35 1.70995,0.81006 3.01495,1.93505 3.915,3.375 0.89995,1.44005 1.48495,3.06005 1.755,4.86 0.35995,1.71005 0.53995,3.46504 0.54,5.265 m -34.02,12.15 51.435,0 c 0.71993,-3.86997 1.07993,-7.51496 1.08,-10.935 -7e-5,-5.03995 -0.81007,-9.44995 -2.43,-13.23 -1.53007,-3.86994 -3.73507,-7.06494 -6.615,-9.585 -2.79006,-2.60993 -6.21006,-4.54493 -10.26,-5.805 -3.96005,-1.25993 -8.37004,-1.88993 -13.23,-1.89 -5.94003,7e-5 -11.29503,1.21507 -16.065,3.645 -4.77002,2.34007 -8.82001,5.53506 -12.15,9.585 -3.24001,3.96005 -5.76,8.55005 -7.56,13.77 -1.8,5.13004 -2.7,10.48503 -2.7,16.065 0,5.04002 0.72,9.45002 2.16,13.23 1.53,3.78001 3.64499,6.97501 6.345,9.585 2.69999,2.52 5.93999,4.41 9.72,5.67 3.86998,1.26 8.14497,1.89 12.825,1.89 5.03996,0 9.44996,-0.495 13.23,-1.485 3.86995,-0.99 7.24495,-2.475 10.125,-4.455 2.87994,-2.06999 5.35494,-4.58999 7.425,-7.56 2.06994,-2.96999 3.86993,-6.43498 5.4,-10.395 l -19.17,0 c -0.72005,1.08002 -1.53005,2.20502 -2.43,3.375 -0.81005,1.17002 -1.80004,2.20502 -2.97,3.105 -1.08004,0.90001 -2.38504,1.66501 -3.915,2.295 -1.44004,0.54001 -3.10504,0.81001 -4.995,0.81 -5.22003,1e-5 -9.09003,-1.25999 -11.61,-3.78 -2.52002,-2.51998 -3.78002,-5.80498 -3.78,-9.855 l 0,-1.755 c -2e-5,-0.35997 -2e-5,-0.71997 0,-1.08 -2e-5,-0.35997 0.045,-0.76497 0.135,-1.215"
           inkscape:connector-curvature="0" />
        <path
           id="path4076"
           style="font-size:135px;font-style:italic;font-weight:bold;-inkscape-font-specification:Helvetica Neue Bold Italic"
           d="m 881.90809,852.28343 -14.445,69.795 19.035,0 6.48,-30.915 c 0.62997,-2.96997 1.43997,-5.80496 2.43,-8.505 1.07997,-2.78996 2.47497,-5.26496 4.185,-7.425 1.79997,-2.15995 3.95996,-3.86995 6.48,-5.13 2.60996,-1.25995 5.75996,-1.88995 9.45,-1.89 1.34995,5e-5 2.69995,0.13505 4.05,0.405 1.34995,0.27005 2.69995,0.54005 4.05,0.81 l 3.915,-18.63 c -1.98006,-0.26993 -3.96006,-0.40493 -5.94,-0.405 -5.13005,7e-5 -9.90004,1.26007 -14.31,3.78 -4.32003,2.43007 -7.56003,6.07506 -9.72,10.935 l -0.27,-0.27 2.835,-12.555 -18.225,0"
           inkscape:connector-curvature="0" />
        <path
           id="path4078"
           style="font-size:135px;font-style:italic;font-weight:bold;-inkscape-font-specification:Helvetica Neue Bold Italic"
           d="m 941.5192,865.10843 -12.015,56.97 19.17,0 12.015,-56.97 13.77,0 2.7,-12.825 -13.635,0 c 0.53996,-2.06993 0.98996,-3.86993 1.35,-5.4 0.35996,-1.61992 0.85496,-2.96992 1.485,-4.05 0.71996,-1.16992 1.70996,-2.02492 2.97,-2.565 1.25995,-0.62992 3.10495,-0.94492 5.535,-0.945 0.98995,8e-5 2.02495,0.0451 3.105,0.135 1.07995,0.0901 2.11495,0.18008 3.105,0.27 l 2.97,-13.77 c -2.07006,-0.3599 -4.18505,-0.6299 -6.345,-0.81 -2.07005,-0.1799 -4.14005,-0.2699 -6.21,-0.27 -5.04004,10e-5 -9.13504,0.5851 -12.285,1.755 -3.06003,1.17009 -5.53503,2.92509 -7.425,5.265 -1.89002,2.34009 -3.37502,5.22009 -4.455,8.64 -1.08002,3.33008 -2.07002,7.24507 -2.97,11.745 l -11.475,0 -2.7,12.825 11.34,0"
           inkscape:connector-curvature="0" />
        <path
           id="path4080"
           style="font-size:135px;font-style:italic;font-weight:bold;-inkscape-font-specification:Helvetica Neue Bold Italic"
           d="m 995.19014,893.86343 c -3e-5,-2.96997 0.40497,-6.11997 1.215,-9.45 0.80997,-3.41996 2.02497,-6.56996 3.64496,-9.45 1.62,-2.87995 3.69,-5.26495 6.21,-7.155 2.61,-1.97994 5.67,-2.96994 9.18,-2.97 5.13,6e-5 8.73,1.39506 10.8,4.185 2.16,2.79005 3.24,6.52505 3.24,11.205 0,2.97004 -0.405,6.16504 -1.215,9.585 -0.81,3.42003 -2.07,6.61503 -3.78,9.585 -1.62,2.88002 -3.735,5.31002 -6.345,7.29 -2.52,1.89001 -5.58,2.83501 -9.18,2.835 -2.25,1e-5 -4.23,-0.40499 -5.94,-1.215 -1.71,-0.89999 -3.14999,-2.06998 -4.31996,-3.51 -1.17003,-1.43998 -2.07003,-3.10498 -2.7,-4.995 -0.54003,-1.88998 -0.81003,-3.86997 -0.81,-5.94 m -19.17,0 c -10e-6,9.99002 2.87999,17.50501 8.64,22.545 5.84998,4.95 13.63497,7.425 23.35496,7.425 6.39,0 12.06,-1.125 17.01,-3.375 5.04,-2.25 9.315,-5.35499 12.825,-9.315 3.51,-3.95998 6.165,-8.59498 7.965,-13.905 1.89,-5.39997 2.835,-11.15996 2.835,-17.28 0,-5.03995 -0.81,-9.40495 -2.43,-13.095 -1.53,-3.68994 -3.735,-6.74994 -6.615,-9.18 -2.88,-2.42993 -6.345,-4.22993 -10.395,-5.4 -3.96,-1.25993 -8.325,-1.88993 -13.095,-1.89 -6.21,7e-5 -11.79,1.17007 -16.73996,3.51 -4.95002,2.25007 -9.18002,5.35506 -12.69,9.315 -3.42001,3.96006 -6.07501,8.59505 -7.965,13.905 -1.80001,5.22004 -2.70001,10.80003 -2.7,16.74"
           inkscape:connector-curvature="0" />
        <path
           id="path4082"
           style="font-size:135px;font-style:italic;font-weight:bold;-inkscape-font-specification:Helvetica Neue Bold Italic"
           d="m 1067.7864,852.28343 -14.445,69.795 19.035,0 6.48,-30.915 c 0.63,-2.96997 1.44,-5.80496 2.43,-8.505 1.08,-2.78996 2.475,-5.26496 4.185,-7.425 1.8,-2.15995 3.96,-3.86995 6.48,-5.13 2.6099,-1.25995 5.7599,-1.88995 9.45,-1.89 1.3499,5e-5 2.6999,0.13505 4.05,0.405 1.3499,0.27005 2.6999,0.54005 4.05,0.81 l 3.915,-18.63 c -1.9801,-0.26993 -3.9601,-0.40493 -5.94,-0.405 -5.1301,7e-5 -9.9001,1.26007 -14.31,3.78 -4.32,2.43007 -7.56,6.07506 -9.72,10.935 l -0.27,-0.27 2.835,-12.555 -18.225,0"
           inkscape:connector-curvature="0" />
        <path
           id="path4084"
           style="font-size:135px;font-style:italic;font-weight:bold;-inkscape-font-specification:Helvetica Neue Bold Italic"
           d="m 1120.257,852.28343 -14.445,69.795 19.035,0 7.83,-37.395 c 0.45,-2.15996 1.17,-4.36496 2.16,-6.615 0.99,-2.24995 2.205,-4.27495 3.645,-6.075 1.53,-1.88995 3.285,-3.41995 5.265,-4.59 2.07,-1.25994 4.365,-1.88994 6.885,-1.89 2.43,6e-5 4.41,0.72006 5.94,2.16 1.62,1.44005 2.43,3.19505 2.43,5.265 0,1.53005 -0.18,3.19505 -0.54,4.995 l -9.18,44.145 19.305,0 7.83,-37.395 c 0.45,-2.15996 1.17,-4.36496 2.16,-6.615 0.99,-2.24995 2.205,-4.27495 3.645,-6.075 1.53,-1.88995 3.2849,-3.41995 5.265,-4.59 2.0699,-1.25994 4.3649,-1.88994 6.885,-1.89 2.4299,6e-5 4.4099,0.72006 5.94,2.16 1.6199,1.44005 2.4299,3.19505 2.43,5.265 -10e-5,1.53005 -0.1801,3.19505 -0.54,4.995 l -9.18,44.145 19.17,0 8.64,-41.04 c 0.4499,-2.06996 0.8999,-4.18495 1.35,-6.345 0.4499,-2.24995 0.6749,-4.45495 0.675,-6.615 -10e-5,-2.96994 -0.5851,-5.57994 -1.755,-7.83 -1.1701,-2.24994 -2.7451,-4.09493 -4.725,-5.535 -1.9801,-1.43993 -4.2751,-2.51993 -6.885,-3.24 -2.5201,-0.71993 -5.1301,-1.07993 -7.83,-1.08 -2.2501,7e-5 -4.5451,0.31507 -6.885,0.945 -2.2501,0.54007 -4.4101,1.35007 -6.48,2.43 -2.0701,1.08007 -4.005,2.38507 -5.805,3.915 -1.8,1.44006 -3.285,3.06006 -4.455,4.86 -0.81,-4.31994 -2.745,-7.42493 -5.805,-9.315 -3.06,-1.88993 -6.75,-2.83493 -11.07,-2.835 -5.13,7e-5 -9.765,0.94507 -13.905,2.835 -4.14,1.89007 -7.65,4.86006 -10.53,8.91 l -0.27,0 2.16,-9.855 -18.36,0"
           inkscape:connector-curvature="0" />
        <path
           id="path4086"
           style="font-size:135px;font-style:italic;font-weight:bold;-inkscape-font-specification:Helvetica Neue Bold Italic"
           d="m 1237.7408,873.47843 17.955,0 c 0.63,-3.50995 2.2949,-6.07495 4.995,-7.695 2.6999,-1.70994 5.7599,-2.56494 9.18,-2.565 1.2599,6e-5 2.5649,0.13506 3.915,0.405 1.4399,0.18006 2.7449,0.58506 3.915,1.215 1.2599,0.63006 2.2949,1.48506 3.105,2.565 0.8099,1.08005 1.2149,2.52005 1.215,4.32 -10e-5,2.25005 -0.5401,3.96005 -1.62,5.13 -1.0801,1.08004 -2.7451,1.93504 -4.995,2.565 -2.1601,0.54004 -4.9051,0.94504 -8.235,1.215 -3.3301,0.27004 -7.2451,0.67504 -11.745,1.215 -8.46,0.99004 -15.03,3.51004 -19.71,7.56 -4.59,4.05003 -6.885,9.45002 -6.885,16.2 0,2.43001 0.45,4.77001 1.35,7.02 0.9,2.16001 2.295,4.09501 4.185,5.805 1.89,1.62 4.23,2.925 7.02,3.915 2.88,0.99 6.21,1.485 9.99,1.485 4.05,0 7.9649,-0.675 11.745,-2.025 3.7799,-1.44 6.9749,-3.645 9.585,-6.615 l 0,6.885 19.17,0 c -0.4501,-1.53 -0.6751,-2.88 -0.675,-4.05 -10e-5,-1.34999 0.045,-2.92499 0.135,-4.725 0.1799,-1.88999 0.4499,-3.46499 0.81,-4.725 l 6.21,-28.08 c 0.9899,-4.49995 1.4849,-8.41495 1.485,-11.745 0.09,-3.95994 -0.8101,-7.10994 -2.7,-9.45 -1.8001,-2.42993 -4.1401,-4.27493 -7.02,-5.535 -2.8801,-1.34993 -6.0301,-2.24993 -9.45,-2.7 -3.4201,-0.44993 -6.7051,-0.67493 -9.855,-0.675 -3.9601,7e-5 -7.7851,0.40507 -11.475,1.215 -3.69,0.72007 -7.02,1.98007 -9.99,3.78 -2.97,1.80007 -5.49,4.18506 -7.56,7.155 -2.07,2.88006 -3.42,6.52505 -4.05,10.935 m 40.5,15.12 -1.89,6.75 c -0.5401,1.89003 -1.2151,3.78002 -2.025,5.67 -0.8101,1.89002 -1.9351,3.60002 -3.375,5.13 -1.3501,1.44001 -3.0601,2.65501 -5.13,3.645 -1.9801,0.90001 -4.4551,1.35001 -7.425,1.35 -2.79,1e-5 -5.265,-0.62999 -7.425,-1.89 -2.07,-1.34999 -3.105,-3.32998 -3.105,-5.94 0,-2.15998 0.405,-3.91498 1.215,-5.265 0.81,-1.43997 1.845,-2.56497 3.105,-3.375 1.35,-0.80997 2.88,-1.39497 4.59,-1.755 1.7099,-0.44997 3.4649,-0.76497 5.265,-0.945 2.7899,-0.17997 5.5799,-0.40497 8.37,-0.675 2.7899,-0.35997 5.3999,-1.25997 7.83,-2.7"
           inkscape:connector-curvature="0" />
        <path
           id="path4088"
           style="font-size:135px;font-style:italic;font-weight:bold;-inkscape-font-specification:Helvetica Neue Bold Italic"
           d="m 1320.1203,852.28343 -14.445,69.795 19.035,0 7.83,-37.125 c 0.54,-2.42996 1.305,-4.81496 2.295,-7.155 1.08,-2.33995 2.385,-4.40995 3.915,-6.21 1.62,-1.79995 3.51,-3.23995 5.67,-4.32 2.25,-1.16994 4.815,-1.75494 7.695,-1.755 2.25,6e-5 4.32,0.67506 6.21,2.025 1.98,1.35005 2.97,3.06005 2.97,5.13 0,0.99005 -0.18,2.38505 -0.54,4.185 -0.27,1.80004 -0.495,3.24004 -0.675,4.32 l -8.505,40.905 19.17,0 8.64,-40.905 c 0.09,-0.62996 0.2249,-1.43996 0.405,-2.43 0.2699,-1.07996 0.4949,-2.20495 0.675,-3.375 0.2699,-1.16995 0.4949,-2.29495 0.675,-3.375 0.1799,-1.16995 0.2699,-2.11495 0.27,-2.835 -10e-5,-12.50993 -6.7951,-18.76493 -20.385,-18.765 -10.08,7e-5 -18.225,3.87007 -24.435,11.61 l -0.27,0 2.16,-9.72 -18.36,0"
           inkscape:connector-curvature="0" />
        <path
           id="path4090"
           style="font-size:135px;font-style:italic;font-weight:bold;-inkscape-font-specification:Helvetica Neue Bold Italic"
           d="m 1442.6096,876.44843 19.17,0 c -0.09,-4.58995 -0.9901,-8.54995 -2.7,-11.88 -1.6201,-3.32994 -3.8701,-6.02994 -6.75,-8.1 -2.7901,-2.06993 -6.0751,-3.59993 -9.855,-4.59 -3.78,-0.98993 -7.785,-1.48493 -12.015,-1.485 -6.3,7e-5 -11.88,1.17007 -16.74,3.51 -4.86,2.25007 -9,5.40006 -12.42,9.45 -3.33,3.96005 -5.895,8.59505 -7.695,13.905 -1.71,5.22004 -2.565,10.80003 -2.565,16.74 0,10.26002 2.7,17.82001 8.1,22.68 5.49,4.77 13.14,7.155 22.95,7.155 9.18,0 16.74,-2.34 22.68,-7.02 6.0299,-4.76999 10.4849,-11.51998 13.365,-20.25 l -19.17,0 c -0.54,1.71002 -1.26,3.37502 -2.16,4.995 -0.81,1.53002 -1.89,2.88002 -3.24,4.05 -1.26,1.17002 -2.745,2.11501 -4.455,2.835 -1.62,0.72001 -3.51,1.08001 -5.67,1.08 -2.43,1e-5 -4.5,-0.40499 -6.21,-1.215 -1.62,-0.80999 -2.97,-1.88998 -4.05,-3.24 -1.08,-1.34998 -1.845,-2.92498 -2.295,-4.725 -0.45,-1.88998 -0.675,-3.86997 -0.675,-5.94 0,-2.96997 0.315,-6.16497 0.945,-9.585 0.72,-3.50996 1.845,-6.74996 3.375,-9.72 1.53,-2.96995 3.555,-5.39995 6.075,-7.29 2.52,-1.97994 5.58,-2.96994 9.18,-2.97 4.32,6e-5 7.515,0.90006 9.585,2.7 2.16,1.80005 3.24,4.77005 3.24,8.91"
           inkscape:connector-curvature="0" />
        <path
           id="path4092"
           style="font-size:135px;font-style:italic;font-weight:bold;-inkscape-font-specification:Helvetica Neue Bold Italic"
           d="m 1518.7011,879.68843 -31.995,0 c 0.72,-1.97996 1.575,-3.86995 2.565,-5.67 1.08,-1.79995 2.385,-3.37495 3.915,-4.725 1.53,-1.34995 3.33,-2.42994 5.4,-3.24 2.07,-0.80994 4.455,-1.21494 7.155,-1.215 2.7899,6e-5 5.0399,0.45006 6.75,1.35 1.7099,0.81006 3.0149,1.93505 3.915,3.375 0.8999,1.44005 1.4849,3.06005 1.755,4.86 0.3599,1.71005 0.5399,3.46504 0.54,5.265 m -34.02,12.15 51.435,0 c 0.7199,-3.86997 1.0799,-7.51496 1.08,-10.935 -10e-5,-5.03995 -0.8101,-9.44995 -2.43,-13.23 -1.5301,-3.86994 -3.7351,-7.06494 -6.615,-9.585 -2.7901,-2.60993 -6.2101,-4.54493 -10.26,-5.805 -3.9601,-1.25993 -8.3701,-1.88993 -13.23,-1.89 -5.94,7e-5 -11.295,1.21507 -16.065,3.645 -4.77,2.34007 -8.82,5.53506 -12.15,9.585 -3.24,3.96005 -5.76,8.55005 -7.56,13.77 -1.8,5.13004 -2.7,10.48503 -2.7,16.065 0,5.04002 0.72,9.45002 2.16,13.23 1.53,3.78001 3.645,6.97501 6.345,9.585 2.7,2.52 5.94,4.41 9.72,5.67 3.87,1.26 8.145,1.89 12.825,1.89 5.04,0 9.4499,-0.495 13.23,-1.485 3.8699,-0.99 7.2449,-2.475 10.125,-4.455 2.8799,-2.06999 5.3549,-4.58999 7.425,-7.56 2.0699,-2.96999 3.8699,-6.43498 5.4,-10.395 l -19.17,0 c -0.7201,1.08002 -1.5301,2.20502 -2.43,3.375 -0.8101,1.17002 -1.8001,2.20502 -2.97,3.105 -1.0801,0.90001 -2.3851,1.66501 -3.915,2.295 -1.44,0.54001 -3.105,0.81001 -4.995,0.81 -5.22,1e-5 -9.09,-1.25999 -11.61,-3.78 -2.52,-2.51998 -3.78,-5.80498 -3.78,-9.855 l 0,-1.755 c 0,-0.35997 0,-0.71997 0,-1.08 0,-0.35997 0.045,-0.76497 0.135,-1.215"
           inkscape:connector-curvature="0" />
      </g>
    </g>
  </g>
  <g
     inkscape:groupmode="layer"
     id="layer2"
     inkscape:label="Layer2"
     style="display:inline"
     transform="translate(-501.25321,-573.11295)" />
</svg>
