<?xml version="1.0" encoding="UTF-8" standalone="no"?>
<svg
   xmlns:svg="http://www.w3.org/2000/svg"
   xmlns="http://www.w3.org/2000/svg"
   version="1.1"
   id="svg4149"
   viewBox="0 0 428.78319 191.68586"
   height="54.098011mm"
   width="121.01215mm">
  <defs
     id="defs4151" />
  <g
     transform="translate(-54.179829,-270.80503)"
     id="layer1">
    <path
       id="path300"
       d="m 137.0978,270.80503 c -20.23456,0 -36.17455,4.25553 -47.826174,12.77148 -11.65163,8.50924 -17.474609,19.91246 -17.474609,34.19727 -10e-7,5.67504 0.931149,10.55156 2.787109,14.63867 1.85595,4.07371 4.583651,7.67963 8.181641,10.8086 3.598019,3.062 7.951941,5.70829 13.050781,7.93945 5.105552,2.23117 10.868602,4.30053 17.300782,6.2168 5.84256,1.78224 10.60592,3.36475 14.29101,4.73828 3.68512,1.36683 6.59284,2.75311 8.7168,4.16015 2.11727,1.40035 3.55203,2.82006 4.28906,4.25391 0.73702,1.43384 1.10547,3.14343 1.10547,5.11328 0,5.29983 -2.2717,9.36699 -6.81445,12.20117 -4.54272,2.84087 -11.64524,4.26172 -21.32031,4.26172 -9.44056,0 -18.257977,-1.64855 -26.458987,-4.93164 -8.20104,-3.28309 -15.337003,-7.91935 -21.414063,-13.91602 l -3.710937,0 -6.814454,34.1504 c 6.425471,3.12898 14.050871,5.74185 22.875001,7.8457 8.81745,2.10387 18.860047,3.15625 30.12305,3.15625 10.14409,0 19.22987,-0.95765 27.25,-2.86719 8.02683,-1.91625 15.18953,-4.94634 21.50781,-9.09375 6.01676,-3.88611 10.73441,-8.95771 14.1582,-15.20898 3.4171,-6.25127 5.125,-13.48703 5.125,-21.71485 0,-9.82247 -3.15522,-17.60169 -9.46679,-23.34375 -6.31157,-5.73536 -16.83884,-10.7409 -31.58594,-15.01562 -5.48746,-1.59464 -10.26501,-3.14258 -14.33203,-4.63672 -4.07372,-1.50085 -7.04804,-2.88627 -8.9375,-4.16602 -2.18425,-1.40033 -3.63047,-2.8354 -4.33399,-4.30273 -0.71021,-1.46735 -1.0664,-3.31572 -1.0664,-5.54688 0,-4.81744 2.39268,-8.59027 7.16992,-11.31054 4.77723,-2.72698 11.53137,-4.09375 20.26172,-4.09375 8.90455,0 17.11828,1.54179 24.64258,4.61718 7.51762,3.06868 13.58057,6.88751 18.18359,11.45704 l 3.625,0 6.45898,-32.81836 c -6.01677,-2.93468 -13.347,-5.25852 -21.99023,-6.98047 -8.63655,-1.71525 -17.82797,-2.58008 -27.55664,-2.58008 z m 245.2207,2.57812 -30.39844,142.44532 34.15235,0 9.88867,-46.39844 12.93164,0 c 23.36356,0 41.54767,-5.19982 54.55273,-15.5918 13.01177,-10.392 19.51758,-24.07418 19.51758,-41.03906 0,-7.464 -1.2121,-13.69418 -3.63086,-18.69922 -2.41208,-5.01175 -5.93018,-9.07218 -10.5332,-12.20117 -4.66333,-3.12227 -10.19031,-5.32657 -16.5957,-6.59961 -6.40537,-1.27303 -13.9176,-1.91602 -22.52735,-1.91602 l -47.35742,0 z m -163.58984,0.004 -30.39844,142.43945 32.23438,0 20.71679,-97.0996 11.63086,63.61718 23.44531,0 36.16602,-59.6914 -19.87891,93.17382 33.96289,0 30.39258,-142.43945 -40.04687,0 -44.75782,71.45704 -14.42578,-71.45704 -39.04101,0 z m 192.05273,26.59571 13.73633,0 c 7.33001,0 12.86343,1.33359 16.58203,4.01367 3.7186,2.68007 5.58203,6.79404 5.58203,12.3418 0,8.41543 -2.8821,14.90787 -8.63086,19.4707 -5.76886,4.55612 -13.80808,6.83398 -24.14648,6.83398 l -12.22852,0 9.10547,-42.66015 z m -2.55468,139.13671 c -1.36685,0 -2.47945,0.41471 -3.34376,1.26563 -0.87103,0.84423 -1.44654,2.03792 -1.74804,3.57226 l -0.0879,0.43555 -1.37891,0 -0.38867,1.76172 1.38672,0 -2.37891,11.36914 2.07031,0 2.3711,-11.36914 3.61914,0 0.38867,-1.76172 -3.69141,0 0.0996,-0.44336 c 0.22781,-1.02513 0.56281,-1.77539 1.01172,-2.25781 0.44222,-0.48911 1.11277,-0.73047 2.00391,-0.73047 0.2747,0 0.5891,0.0337 0.9375,0.10742 0.34841,0.067 0.63019,0.14041 0.83789,0.22071 l 0.10742,0 0.42188,-1.94336 c -0.29481,-0.0603 -0.62954,-0.11326 -0.99805,-0.16016 -0.36852,-0.0469 -0.78461,-0.0664 -1.24023,-0.0664 z m -249.00977,0.11133 -3.90039,18.29102 2.04297,0 2.09179,-9.79492 c 0.62982,-0.45562 1.2781,-0.85139 1.94141,-1.17969 0.66333,-0.33502 1.27481,-0.4961 1.82422,-0.4961 0.79064,0 1.33326,0.16778 1.63477,0.4961 0.30151,0.335 0.44726,0.82971 0.44726,1.48633 0,0.30822 -0.0195,0.61756 -0.0664,0.92578 -0.0469,0.30821 -0.11407,0.67051 -0.20117,1.08593 l -1.59375,7.47657 2.03711,0 1.82813,-8.52344 c 0.0537,-0.24123 0.10136,-0.52213 0.13476,-0.84375 0.0333,-0.3216 0.0469,-0.57607 0.0469,-0.76367 0,-1.09214 -0.29516,-1.92183 -0.88477,-2.49805 -0.59632,-0.57622 -1.41988,-0.86523 -2.47851,-0.86523 -0.71692,0 -1.41508,0.16053 -2.0918,0.46875 -0.67672,0.3149 -1.40721,0.76501 -2.17773,1.36132 l 1.4082,-6.62695 -2.04297,0 z m 104.86914,0 -3.90039,18.29102 2.04492,0 2.08984,-9.79492 c 0.62981,-0.45563 1.28005,-0.85139 1.94336,-1.17969 0.66332,-0.33502 1.27285,-0.4961 1.82227,-0.4961 0.79063,0 1.33327,0.16778 1.63477,0.4961 0.30152,0.33501 0.44921,0.82971 0.44921,1.48633 0,0.30822 -0.0215,0.61756 -0.0684,0.92578 -0.0469,0.30821 -0.11222,0.67052 -0.19922,1.08593 l -1.59571,7.47657 2.03711,0 1.82227,-8.52344 c 0.0603,-0.24122 0.10702,-0.52214 0.14062,-0.84375 0.0333,-0.3216 0.0469,-0.57607 0.0469,-0.76367 0,-1.09214 -0.29515,-1.92183 -0.88477,-2.49805 -0.59631,-0.57622 -1.41987,-0.86523 -2.47851,-0.86523 -0.71692,0 -1.41312,0.16053 -2.08985,0.46875 -0.67671,0.3149 -1.4072,0.765 -2.17773,1.36132 l 1.40625,-6.62695 -2.04297,0 z m -111.05273,0.002 -1.21875,5.68946 c -0.46902,-0.2948 -0.97879,-0.52252 -1.52149,-0.66992 -0.54272,-0.1474 -1.13998,-0.22266 -1.7832,-0.22266 -0.94472,0 -1.83437,0.24136 -2.67188,0.73047 -0.84423,0.48912 -1.56829,1.16052 -2.1914,1.99804 -0.61641,0.84423 -1.11279,1.82749 -1.47461,2.95313 -0.36182,1.12563 -0.54297,2.3185 -0.54297,3.57813 0,1.49414 0.33585,2.64073 1.00586,3.41796 0.67002,0.78392 1.58166,1.17969 2.7207,1.17969 0.66331,0 1.27117,-0.12206 1.83398,-0.36328 0.56281,-0.2345 1.29998,-0.69549 2.22462,-1.37891 l -0.29493,1.37891 2.04493,0 3.90624,-18.29102 -2.0371,0 z m -89.707037,0.46875 c -2.07706,0 -3.765735,0.55658 -5.072266,1.66211 -1.30653,1.11223 -1.96289,2.49768 -1.96289,4.16602 0,0.99163 0.31439,1.81714 0.9375,2.48047 0.61643,0.67001 1.499642,1.13936 2.638672,1.41406 0.58293,0.1474 1.206399,0.28674 1.849609,0.41406 0.64992,0.134 1.212621,0.26944 1.681641,0.41016 0.56952,0.17419 0.998169,0.43505 1.292969,0.79687 0.28812,0.36182 0.435547,0.8108 0.435547,1.35352 0,1.02513 -0.408312,1.86793 -1.232422,2.53125 -0.82413,0.66331 -2.009752,0.99219 -3.550782,0.99219 -0.93804,0 -1.915994,-0.18646 -2.927734,-0.56836 -1.01171,-0.38192 -1.863737,-0.92567 -2.560547,-1.64258 l -0.152344,0 -0.523437,2.66597 c 0.91792,0.49582 1.850191,0.86426 2.794921,1.10546 0.95142,0.23448 1.94808,0.35547 3.000001,0.35547 1.21944,0 2.272082,-0.16107 3.169922,-0.49609 0.89781,-0.3283 1.675693,-0.78316 2.345703,-1.35938 0.62312,-0.54272 1.104725,-1.19208 1.453125,-1.94921 0.34843,-0.76382 0.523437,-1.52914 0.523437,-2.29297 0,-0.91792 -0.269508,-1.68021 -0.798828,-2.28321 -0.53601,-0.60302 -1.31192,-1.05981 -2.34375,-1.36132 -0.52262,-0.14742 -1.16697,-0.30711 -1.9375,-0.47461 -0.76382,-0.16749 -1.378636,-0.31575 -1.847656,-0.42969 -0.72362,-0.19431 -1.226403,-0.48947 -1.507813,-0.88477 -0.28141,-0.38861 -0.421875,-0.84346 -0.421875,-1.35937 0,-0.96484 0.387104,-1.76276 1.177735,-2.39258 0.78392,-0.62311 1.83631,-0.9375 3.15625,-0.9375 1.05193,0 2.056382,0.18704 3.007812,0.54883 0.95142,0.36852 1.683309,0.81109 2.199219,1.32031 l 0.152344,0 0.490234,-2.49805 c -0.66333,-0.34841 -1.460135,-0.65164 -2.384765,-0.90625 -0.92462,-0.25459 -1.956402,-0.38086 -3.082032,-0.38086 z m 159.306637,0.31836 -3.73046,17.50196 2.02929,0 3.26953,-15.33008 2.2793,10.51172 1.28516,0 6.57422,-10.04883 -3.18946,14.86719 2.17774,0 3.73047,-17.50196 -2.98829,0 -6.29687,9.74219 -2.18555,-9.74219 -2.95508,0 z m 126.2754,0.002 -3.73829,17.50195 2.17774,0 1.40039,-6.56055 2.35742,0 c 1.15913,0 2.15133,-0.14659 2.96875,-0.4414 0.82412,-0.2948 1.56716,-0.73767 2.23047,-1.33399 0.70351,-0.63651 1.247,-1.38065 1.62891,-2.23828 0.38192,-0.85761 0.57617,-1.76732 0.57617,-2.71875 0,-0.71691 -0.11482,-1.32757 -0.33594,-1.83008 -0.22779,-0.50252 -0.55642,-0.932 -0.97852,-1.28711 -0.41542,-0.35511 -0.94467,-0.62293 -1.58789,-0.81054 -0.64321,-0.18761 -1.46038,-0.28125 -2.44531,-0.28125 l -4.2539,0 z m -93.95704,0.59961 -0.81054,3.77148 -1.38672,0 -0.375,1.78906 1.3789,0 -1.50781,7.04883 c -0.0603,0.3149 -0.10702,0.59585 -0.14062,0.84375 -0.0332,0.24121 -0.0469,0.49623 -0.0469,0.74414 0,1.02512 0.2748,1.77428 0.82422,2.25 0.54272,0.4757 1.32003,0.71094 2.31836,0.71094 0.3551,0 0.76425,-0.0337 1.22656,-0.10742 0.45562,-0.067 0.89207,-0.15363 1.30078,-0.26758 l 0.375,-1.88867 -0.10742,0 c -0.14742,0.0603 -0.42331,0.1467 -0.83203,0.2539 -0.4087,0.11392 -0.76377,0.16797 -1.05859,0.16797 -0.72362,0 -1.21833,-0.14132 -1.48633,-0.41601 -0.26802,-0.28142 -0.40234,-0.70307 -0.40234,-1.2793 0,-0.23451 0.0255,-0.55 0.0859,-0.94531 0.0603,-0.40203 0.12162,-0.7504 0.19532,-1.0586 l 1.29882,-6.05664 4.22266,0 0.36719,-1.78906 -4.20117,0 0.8125,-3.77148 -2.05079,0 z m 95.73243,1.3164 2.0039,0 c 0.68342,0 1.23219,0.054 1.6543,0.16797 0.4221,0.11391 0.79057,0.30203 1.10547,0.55664 0.26132,0.22111 0.44886,0.50984 0.57617,0.85156 0.12049,0.34171 0.18164,0.71601 0.18164,1.11133 0,0.68341 -0.12207,1.30047 -0.36328,1.86328 -0.2412,0.55611 -0.60965,1.05108 -1.10547,1.5 -0.41541,0.37521 -0.91012,0.65002 -1.48633,0.82422 -0.57621,0.17432 -1.29975,0.26172 -2.16406,0.26172 l -1.92969,0 1.52735,-7.13672 z m -68.5918,2.08789 c -2.07034,0 -3.81255,0.86483 -5.21289,2.58008 -1.40703,1.72195 -2.10938,3.78605 -2.10938,6.19141 0,1.64824 0.47547,2.89432 1.4336,3.75195 0.95813,0.85091 2.27137,1.2793 3.95312,1.2793 0.52262,0 0.95824,-0.0333 1.30664,-0.0937 0.34841,-0.0603 0.74251,-0.15477 1.19141,-0.27539 0.44892,-0.11391 0.81737,-0.23373 1.10547,-0.34766 0.28812,-0.12061 0.6167,-0.24797 0.97851,-0.38867 l 0.44922,-2.38477 -0.12109,0 c -0.57622,0.42213 -1.27993,0.80366 -2.13086,1.13868 -0.83752,0.335 -1.66166,0.50976 -2.45898,0.50976 -1.14574,0 -2.02924,-0.32135 -2.65235,-0.95117 -0.62312,-0.62981 -0.93164,-1.49408 -0.93164,-2.59961 0,-0.1876 0.007,-0.39608 0.0273,-0.61719 0.0135,-0.2144 0.0469,-0.44295 0.0937,-0.66406 l 8.94336,0 c 0.13401,-0.67672 0.23453,-1.27203 0.29493,-1.78125 0.0604,-0.50251 0.0937,-0.87878 0.0937,-1.11328 0,-1.34002 -0.36064,-2.38407 -1.09766,-3.1211 -0.73032,-0.73702 -1.78269,-1.11328 -3.15625,-1.11328 z m 84.15234,0 c -2.07036,0 -3.80584,0.86483 -5.21289,2.58008 -1.40033,1.72195 -2.10351,3.78605 -2.10351,6.19141 0,1.64824 0.47546,2.89432 1.43359,3.75195 0.95143,0.85091 2.27138,1.2793 3.95313,1.2793 0.52262,0 0.95238,-0.0333 1.30078,-0.0937 0.34842,-0.0603 0.7492,-0.15477 1.1914,-0.27539 0.45562,-0.11391 0.82518,-0.23373 1.11328,-0.34766 0.28811,-0.12061 0.6167,-0.24797 0.97852,-0.38867 l 0.44141,-2.38477 -0.11328,0 c -0.57622,0.42213 -1.28665,0.80366 -2.13086,1.13868 -0.83754,0.33499 -1.66167,0.50976 -2.45899,0.50976 -1.14572,0 -2.03118,-0.32135 -2.6543,-0.95117 -0.62311,-0.62981 -0.9375,-1.49408 -0.9375,-2.59961 0,-0.1876 0.0138,-0.39608 0.0274,-0.61719 0.0201,-0.2144 0.0534,-0.44295 0.0937,-0.66406 l 8.94336,0 c 0.14071,-0.67672 0.24233,-1.27203 0.30273,-1.78125 0.0602,-0.50251 0.0937,-0.87878 0.0937,-1.11328 0,-1.34002 -0.3693,-2.38407 -1.09961,-3.1211 -0.73032,-0.73702 -1.78187,-1.11328 -3.16211,-1.11328 z m -274.458982,0.002 c -0.71691,0 -1.400861,0.16081 -2.050781,0.48242 -0.649911,0.32162 -1.352255,0.77033 -2.109376,1.33984 l 0.306641,-1.46094 -2.042969,0 -2.800781,13.13282 2.037109,0 2.089844,-9.80274 c 0.89783,-0.63652 1.616334,-1.07213 2.152344,-1.30664 0.53603,-0.24117 1.024315,-0.36133 1.453125,-0.36133 0.61642,0 1.112799,0.12739 1.474609,0.38868 0.36181,0.26802 0.542969,0.75657 0.542969,1.46679 0,0.32161 -0.02749,0.63709 -0.08789,0.94532 -0.06029,0.31489 -0.134715,0.71094 -0.228515,1.19335 l -1.59375,7.47657 2.042969,0 1.789062,-8.40235 c 0.04695,-0.201 0.07988,-0.42202 0.113281,-0.66992 0.0334,-0.25461 0.05412,-0.47562 0.07422,-0.66992 0.62982,-0.46231 1.265824,-0.86449 1.902344,-1.21289 0.63652,-0.34171 1.246886,-0.51563 1.816406,-0.51563 0.77721,0 1.307331,0.16081 1.582031,0.48243 0.27471,0.3216 0.4082,0.77673 0.4082,1.37304 0,0.30822 -0.0265,0.63707 -0.0801,0.99219 -0.0536,0.3484 -0.12858,0.73106 -0.20898,1.14648 l -1.59961,7.47657 2.03516,0 1.83007,-8.52344 c 0.0671,-0.29483 0.11299,-0.58884 0.14649,-0.87695 0.0333,-0.2948 0.0469,-0.56961 0.0469,-0.82422 0,-1.03183 -0.26673,-1.8426 -0.80274,-2.41211 -0.53602,-0.56952 -1.33422,-0.85742 -2.406246,-0.85742 -0.73701,0 -1.480311,0.16694 -2.244141,0.50195 -0.7638,0.32832 -1.620845,0.87179 -2.572265,1.62891 -0.16751,-0.67001 -0.510312,-1.19314 -1.019532,-1.56836 -0.515909,-0.3752 -1.178663,-0.5625 -1.996093,-0.5625 z m 100.070312,0 c -0.71692,0 -1.41311,0.16053 -2.08984,0.46875 -0.68342,0.3149 -1.40831,0.76389 -2.18555,1.35351 l 0.31641,-1.46094 -2.04492,0 -2.80665,13.13282 2.04297,0 2.0918,-9.80274 c 0.63652,-0.45561 1.2792,-0.84357 1.94922,-1.17187 0.66332,-0.33502 1.26614,-0.4961 1.82226,-0.4961 0.78393,0 1.32741,0.16778 1.62891,0.4961 0.30152,0.335 0.44727,0.82971 0.44727,1.48633 0,0.30822 -0.0195,0.61756 -0.0664,0.92578 -0.0469,0.30821 -0.11417,0.67051 -0.20117,1.08593 l -1.58789,7.47657 2.03711,0 1.82226,-8.52344 c 0.0537,-0.24123 0.10137,-0.52213 0.13477,-0.84375 0.0268,-0.3216 0.0469,-0.57607 0.0469,-0.76367 0,-1.09214 -0.29514,-1.92183 -0.88476,-2.49805 -0.59632,-0.57622 -1.41403,-0.86523 -2.47266,-0.86523 z m 139.77734,0 c -0.71691,0 -1.42092,0.16053 -2.09765,0.46875 -0.67671,0.3149 -1.40052,0.76389 -2.17774,1.35351 l 0.31641,-1.46094 -2.04492,0 -2.80664,13.13282 2.04297,0 2.09179,-9.80274 c 0.63651,-0.45561 1.28479,-0.84357 1.94141,-1.17187 0.67001,-0.33502 1.27396,-0.4961 1.83008,-0.4961 0.78393,0 1.3274,0.16778 1.6289,0.4961 0.30152,0.335 0.44727,0.82971 0.44727,1.48633 0,0.30822 -0.0195,0.61756 -0.0664,0.92578 -0.0469,0.30821 -0.11407,0.67051 -0.20117,1.08593 l -1.58789,7.47657 2.03711,0 1.81641,-8.52344 c 0.0603,-0.24123 0.10722,-0.52213 0.14062,-0.84375 0.0268,-0.3216 0.0469,-0.57607 0.0469,-0.76367 0,-1.09214 -0.29515,-1.92183 -0.88477,-2.49805 -0.58961,-0.57622 -1.41403,-0.86523 -2.47266,-0.86523 z m 108.47071,0 c -0.71692,0 -1.39891,0.16081 -2.04883,0.48242 -0.64991,0.32162 -1.35421,0.77033 -2.11133,1.33984 l 0.3086,-1.46094 -2.04493,0 -2.80664,13.13282 2.04297,0 2.09766,-9.80274 c 0.89113,-0.63652 1.60852,-1.07213 2.14453,-1.30664 0.53602,-0.24117 1.01761,-0.36133 1.45312,-0.36133 0.61642,0 1.11282,0.12739 1.47461,0.38868 0.36182,0.26802 0.54297,0.75657 0.54297,1.46679 0,0.32161 -0.0343,0.63709 -0.0879,0.94532 -0.0603,0.31489 -0.13276,0.71094 -0.22656,1.19335 l -1.5957,7.47657 2.04492,0 1.78906,-8.40235 c 0.0402,-0.201 0.0799,-0.42202 0.11328,-0.66992 0.0334,-0.25461 0.0606,-0.47562 0.0742,-0.66992 0.62981,-0.46231 1.26583,-0.86449 1.90234,-1.21289 0.63653,-0.34171 1.24689,-0.51563 1.81641,-0.51563 0.77721,0 1.30538,0.16081 1.58008,0.48243 0.27472,0.3216 0.41601,0.77673 0.41601,1.37304 0,0.30822 -0.0343,0.63707 -0.0879,0.99219 -0.0536,0.3484 -0.12003,0.73106 -0.20703,1.14648 l -1.60156,7.47657 2.03711,0 1.82812,-8.52344 c 0.0671,-0.29483 0.11504,-0.58884 0.14844,-0.87695 0.0333,-0.2948 0.0469,-0.56961 0.0469,-0.82422 0,-1.03183 -0.26868,-1.8426 -0.80469,-2.41211 -0.53603,-0.56952 -1.33227,-0.85742 -2.4043,-0.85742 -0.73702,0 -1.48226,0.16694 -2.24609,0.50195 -0.76382,0.32832 -1.62085,0.87179 -2.57227,1.62891 -0.16751,-0.67001 -0.50835,-1.19314 -1.01757,-1.56836 -0.50923,-0.3752 -1.18062,-0.5625 -1.99805,-0.5625 z m -195.10742,0.002 c -1.03853,0 -1.98947,0.2411 -2.86719,0.7168 -0.87103,0.47572 -1.60988,1.11868 -2.21289,1.91601 -0.62311,0.83081 -1.09746,1.77646 -1.42578,2.8418 -0.3283,1.06533 -0.4961,2.19075 -0.4961,3.36328 0,1.56784 0.40217,2.79443 1.21289,3.68555 0.81072,0.89112 1.92973,1.33203 3.37696,1.33203 1.09884,0 2.06258,-0.233 2.88672,-0.69531 0.83081,-0.469 1.55571,-1.12036 2.18554,-1.95118 0.60973,-0.79731 1.08576,-1.73488 1.41406,-2.82031 0.33503,-1.07873 0.50196,-2.20357 0.50196,-3.38281 0,-1.61474 -0.41612,-2.85526 -1.24024,-3.71289 -0.82412,-0.86431 -1.93559,-1.29297 -3.33593,-1.29297 z m 71.54101,0 c -1.03853,0 -1.98947,0.2411 -2.86719,0.7168 -0.87103,0.47572 -1.60791,1.11868 -2.21093,1.91601 -0.62312,0.83081 -1.09943,1.77647 -1.42774,2.8418 -0.335,1.06534 -0.49609,2.19074 -0.49609,3.36328 0,1.56784 0.40216,2.79444 1.21289,3.68555 0.81072,0.89113 1.9297,1.33203 3.37695,1.33203 1.09883,0 2.06454,-0.23495 2.88867,-0.69727 0.83082,-0.46899 1.55377,-1.1184 2.1836,-1.94922 0.60971,-0.79732 1.08577,-1.73488 1.41406,-2.82031 0.33502,-1.07873 0.50195,-2.20358 0.50195,-3.38281 0,-1.61475 -0.41417,-2.85527 -1.23828,-3.71289 -0.82414,-0.86432 -1.93756,-1.29297 -3.33789,-1.29297 z m 98.94531,0 c -1.03852,0 -1.98946,0.2411 -2.86718,0.7168 -0.87103,0.47572 -1.60793,1.11868 -2.21094,1.91601 -0.62312,0.83081 -1.09943,1.77647 -1.42773,2.8418 -0.335,1.06534 -0.4961,2.19074 -0.4961,3.36328 0,1.56784 0.40216,2.79444 1.21289,3.68555 0.80402,0.89113 1.93055,1.33203 3.3711,1.33203 1.10553,0 2.0704,-0.23495 2.89453,-0.69727 0.83082,-0.46899 1.55376,-1.1184 2.18359,-1.94922 0.60972,-0.79732 1.07906,-1.73488 1.41406,-2.82031 0.33501,-1.07873 0.50196,-2.20358 0.50196,-3.38281 0,-1.61475 -0.41417,-2.85527 -1.23829,-3.71289 -0.82411,-0.86432 -1.94425,-1.29297 -3.33789,-1.29297 z m -36.35156,0.002 c -0.96482,0 -1.86867,0.24135 -2.71289,0.73047 -0.84423,0.48241 -1.56885,1.13153 -2.17187,1.93555 -0.61641,0.83083 -1.09774,1.78232 -1.43946,2.84765 -0.34171,1.07203 -0.51562,2.17821 -0.51562,3.31055 0,1.42044 0.32802,2.51771 0.99805,3.29492 0.67001,0.78392 1.58835,1.17383 2.76757,1.17383 0.87102,0 1.58647,-0.13516 2.14258,-0.39648 0.55612,-0.2613 1.20048,-0.66209 1.9375,-1.19141 l -0.24805,1.15234 c -0.10722,0.53602 -0.26161,1.02542 -0.44921,1.46094 -0.19431,0.43551 -0.44263,0.81622 -0.74415,1.14453 -0.3149,0.3283 -0.70899,0.59085 -1.1914,0.78516 -0.4824,0.18758 -1.06574,0.28711 -1.75586,0.28711 -0.60972,0 -1.25994,-0.0934 -1.94336,-0.26758 -0.69011,-0.18089 -1.23861,-0.36929 -1.64062,-0.57031 l -0.11524,0 -0.46289,2.19922 c 0.52262,0.17421 1.10653,0.31363 1.73633,0.41406 0.63653,0.1005 1.26555,0.14844 1.88867,0.14844 1.93635,0 3.45084,-0.50919 4.54297,-1.54102 1.09213,-1.03181 1.87584,-2.6603 2.35156,-4.88476 l 2.47266,-11.67188 -1.89649,0 -0.2539,0.5625 c -0.40872,-0.2747 -0.88503,-0.49573 -1.42774,-0.66992 -0.54942,-0.17422 -1.17232,-0.25391 -1.86914,-0.25391 z m -302.574218,0.0449 c -0.73034,0 -1.493696,0.0753 -2.291015,0.22266 -0.79733,0.1474 -1.400987,0.27976 -1.816407,0.40039 l -0.402343,2.21094 0.107421,0 c 0.49582,-0.21441 1.139909,-0.42817 1.923829,-0.64258 0.79733,-0.2143 1.500767,-0.32227 2.117187,-0.32227 0.40201,0 0.776308,0.0206 1.111328,0.0742 0.33502,0.0536 0.636856,0.14836 0.884766,0.28907 0.25461,0.1407 0.449123,0.32714 0.589843,0.56836 0.1407,0.23449 0.207032,0.5369 0.207032,0.91211 0,0.17421 -0.01347,0.34115 -0.04687,0.50195 -0.02684,0.1608 -0.06638,0.3492 -0.113281,0.57031 -1.480741,0.0469 -2.794836,0.16618 -3.947266,0.36719 -1.15912,0.201 -2.14462,0.52375 -2.96875,0.97265 -0.83082,0.45563 -1.45875,1.03893 -1.88086,1.75586 -0.422119,0.71691 -0.636718,1.59345 -0.636718,2.63868 0,0.97823 0.301277,1.77587 0.904297,2.3789 0.59631,0.60971 1.37892,0.91211 2.34375,0.91211 0.59631,0 1.119711,-0.061 1.582031,-0.18164 0.4556,-0.12061 0.863902,-0.27418 1.232422,-0.45508 0.3484,-0.1608 0.691483,-0.36203 1.033203,-0.58984 0.335,-0.2345 0.602575,-0.40979 0.796875,-0.53711 l -0.294922,1.40039 2.029297,0 1.896484,-8.91016 c 0.04025,-0.21441 0.07978,-0.43652 0.113281,-0.67773 0.0333,-0.2412 0.04688,-0.46137 0.04688,-0.67578 0,-1.10553 -0.37457,-1.91069 -1.125,-2.41992 -0.757131,-0.50921 -1.888955,-0.76368 -3.396485,-0.76368 z m 48.593748,0 c -0.73033,0 -1.4937,0.0753 -2.29101,0.22266 -0.79733,0.1474 -1.40099,0.27976 -1.81641,0.40039 l -0.40234,2.21094 0.10742,0 c 0.49581,-0.21441 1.13321,-0.42817 1.92383,-0.64258 0.79732,-0.2143 1.50076,-0.32227 2.11718,-0.32227 0.40202,0 0.77632,0.0206 1.11133,0.0742 0.33501,0.0536 0.63686,0.14836 0.88477,0.28907 0.2546,0.1407 0.44913,0.32714 0.58984,0.56836 0.14071,0.23449 0.20703,0.5369 0.20703,0.91211 0,0.17421 -0.0135,0.34115 -0.0469,0.50195 -0.0269,0.1608 -0.0664,0.3492 -0.11328,0.57031 -1.48074,0.0469 -2.79287,0.16618 -3.94531,0.36719 -1.15913,0.201 -2.14462,0.52375 -2.96875,0.97265 -0.83082,0.45563 -1.46069,1.03893 -1.88281,1.75586 -0.42211,0.71691 -0.63672,1.59345 -0.63672,2.63868 0,0.97823 0.30129,1.77587 0.90429,2.3789 0.59633,0.60971 1.38089,0.91211 2.34571,0.91211 0.59632,0 1.11777,-0.061 1.58008,-0.18164 0.4556,-0.12061 0.86586,-0.27418 1.23437,-0.45508 0.3551,-0.1608 0.68954,-0.36203 1.03125,-0.58984 0.33501,-0.2345 0.60258,-0.40979 0.79688,-0.53711 l -0.29493,1.40039 2.03125,0 1.89453,-8.91016 c 0.0402,-0.21441 0.0818,-0.43652 0.11524,-0.67773 0.0333,-0.2412 0.0469,-0.46137 0.0469,-0.67578 0,-1.10553 -0.37654,-1.91069 -1.12695,-2.41992 -0.75713,-0.50921 -1.88896,-0.76368 -3.39649,-0.76368 z m 51.36914,0 c -0.73033,0 -1.49369,0.0753 -2.29101,0.22266 -0.79733,0.1474 -1.40101,0.27976 -1.81641,0.40039 l -0.40234,2.21094 0.10742,0 c 0.4958,-0.21441 1.13909,-0.42817 1.92969,-0.64258 0.79063,-0.2143 1.4949,-0.32227 2.11133,-0.32227 0.40201,0 0.7763,0.0206 1.11132,0.0742 0.335,0.0536 0.63602,0.14836 0.89063,0.28907 0.24791,0.1407 0.44998,0.32714 0.58398,0.56836 0.14071,0.23449 0.20703,0.5369 0.20703,0.91211 0,0.17421 -0.0135,0.34115 -0.0469,0.50195 -0.0269,0.1608 -0.0664,0.3492 -0.11328,0.57031 -1.47405,0.0469 -2.79484,0.16618 -3.94727,0.36719 -1.15914,0.201 -2.14462,0.52375 -2.96875,0.97265 -0.83082,0.45563 -1.46069,1.03893 -1.88281,1.75586 -0.42211,0.71691 -0.63477,1.59345 -0.63477,2.63868 0,0.97823 0.30128,1.77587 0.9043,2.3789 0.59631,0.60971 1.37893,0.91211 2.34375,0.91211 0.59632,0 1.11972,-0.061 1.58203,-0.18164 0.4556,-0.12061 0.86503,-0.27418 1.24024,-0.45508 0.3484,-0.1608 0.68172,-0.36203 1.02343,-0.58984 0.33501,-0.2345 0.60453,-0.40979 0.79883,-0.53711 l -0.29492,1.40039 2.0293,0 1.89648,-8.91016 c 0.0469,-0.21441 0.0799,-0.43652 0.11328,-0.67773 0.0333,-0.2412 0.0469,-0.46137 0.0469,-0.67578 0,-1.10553 -0.37459,-1.91069 -1.125,-2.41992 -0.75713,-0.50921 -1.88226,-0.76368 -3.39649,-0.76368 z m 27.72852,0 c -0.73033,0 -1.4937,0.0753 -2.29102,0.22266 -0.79732,0.1474 -1.40098,0.27976 -1.8164,0.40039 l -0.40235,2.21094 0.10743,0 c 0.49582,-0.21441 1.1399,-0.42817 1.92382,-0.64258 0.79733,-0.2143 1.50078,-0.32227 2.11719,-0.32227 0.40201,0 0.77632,0.0206 1.11133,0.0742 0.33502,0.0536 0.63685,0.14836 0.88476,0.28907 0.2546,0.1407 0.44914,0.32714 0.58985,0.56836 0.1407,0.23449 0.20703,0.5369 0.20703,0.91211 0,0.17421 -0.0133,0.34115 -0.0469,0.50195 -0.0269,0.1608 -0.0664,0.3492 -0.11328,0.57031 -1.48075,0.0469 -2.79288,0.16618 -3.94531,0.36719 -1.15913,0.201 -2.14461,0.52375 -2.96875,0.97265 -0.83081,0.45563 -1.4607,1.03893 -1.88281,1.75586 -0.42212,0.71691 -0.63672,1.59345 -0.63672,2.63868 0,0.97823 0.30128,1.77587 0.9043,2.3789 0.59632,0.60971 1.38086,0.91211 2.3457,0.91211 0.59632,0 1.11776,-0.061 1.58008,-0.18164 0.4556,-0.12061 0.86585,-0.27418 1.23437,-0.45508 0.3484,-0.1608 0.68953,-0.36203 1.03125,-0.58984 0.33499,-0.2345 0.60259,-0.40979 0.79688,-0.53711 l -0.29492,1.40039 2.03125,0 1.89453,-8.91016 c 0.0402,-0.21441 0.0816,-0.43652 0.11523,-0.67773 0.0333,-0.2412 0.0469,-0.46137 0.0469,-0.67578 0,-1.10553 -0.37655,-1.91069 -1.12696,-2.41992 -0.75714,-0.50921 -1.88895,-0.76368 -3.39648,-0.76368 z m 99.9043,0 c -0.87771,0 -1.67566,0.12737 -2.39258,0.38868 -0.71691,0.26801 -1.30637,0.60913 -1.77539,1.03125 -0.48241,0.44891 -0.8506,0.93943 -1.0918,1.46875 -0.24788,0.53602 -0.36914,1.10429 -0.36914,1.7207 0,0.70352 0.20152,1.29995 0.60352,1.78906 0.40871,0.48912 1.03188,0.86368 1.88281,1.125 0.40871,0.11389 0.8039,0.22244 1.19922,0.30274 0.3953,0.0871 0.73618,0.16737 1.01758,0.23437 0.55611,0.1407 0.98448,0.32101 1.27929,0.54883 0.3015,0.22109 0.44922,0.54358 0.44922,0.95898 0,0.79062 -0.28818,1.38622 -0.87109,1.79493 -0.57622,0.40871 -1.38,0.60937 -2.39844,0.60937 -0.50251,0 -0.97074,-0.0594 -1.40625,-0.19336 -0.44221,-0.12731 -0.83211,-0.282 -1.17383,-0.46289 -0.3752,-0.18762 -0.6818,-0.37406 -0.92969,-0.56836 -0.24122,-0.19431 -0.43574,-0.35539 -0.58984,-0.49609 l -0.10742,0 -0.46289,2.35742 c 0.4824,0.28141 1.07883,0.54312 1.78906,0.79102 0.71691,0.24119 1.52711,0.36132 2.43164,0.36132 0.91122,0 1.73565,-0.12709 2.47266,-0.375 0.72363,-0.2546 1.35407,-0.6027 1.86328,-1.04492 0.50251,-0.4288 0.88433,-0.92378 1.15234,-1.5 0.26131,-0.5762 0.39453,-1.16653 0.39453,-1.76953 0,-0.72364 -0.2146,-1.31921 -0.63672,-1.79492 -0.4221,-0.47571 -1.05702,-0.8308 -1.89453,-1.0586 -0.36182,-0.0938 -0.73834,-0.18923 -1.12695,-0.26953 -0.38862,-0.0804 -0.76292,-0.16792 -1.11133,-0.26172 -0.56951,-0.1474 -0.98617,-0.35393 -1.26758,-0.61523 -0.27471,-0.26801 -0.4082,-0.58906 -0.4082,-0.98437 0,-0.71021 0.28094,-1.27294 0.84375,-1.68165 0.56952,-0.41541 1.29972,-0.62304 2.21094,-0.62304 0.44891,0 0.87951,0.0587 1.29492,0.16601 0.4221,0.1072 0.78274,0.24126 1.09766,0.38868 0.3618,0.1809 0.65611,0.35509 0.89062,0.52929 0.24121,0.17421 0.41536,0.30962 0.5293,0.41016 l 0.10742,0 0.43555,-2.25977 c -0.45561,-0.2881 -1.04479,-0.52835 -1.76172,-0.72265 -0.72361,-0.19426 -1.4463,-0.29493 -2.16992,-0.29493 z m -197.93946,0.31641 2.07031,13.13281 2.03711,0 7.71875,-13.13281 -2.24609,0 -5.96875,10.49219 -1.54102,-10.49219 -2.07031,0 z m 282.44141,0 -1.81641,8.52344 c -0.0537,0.32161 -0.10136,0.60281 -0.13476,0.85742 -0.0333,0.24791 -0.0469,0.50934 -0.0469,0.77734 0,1.08543 0.2893,1.91486 0.87891,2.48438 0.58961,0.56951 1.40007,0.85156 2.44531,0.85156 0.74372,0 1.45304,-0.16081 2.12305,-0.48242 0.67002,-0.3216 1.39354,-0.76446 2.16406,-1.33399 l -0.30664,1.45508 2.04297,0 2.78711,-13.13281 -2.03711,0 -2.08984,9.80859 c -0.58291,0.43552 -1.22004,0.81846 -1.91016,1.16016 -0.69012,0.33502 -1.30579,0.50195 -1.8418,0.50195 -0.75712,0 -1.29446,-0.16693 -1.60937,-0.50195 -0.3149,-0.3417 -0.47461,-0.84477 -0.47461,-1.52148 0,-0.22112 0.0323,-0.53523 0.0859,-0.92383 0.0603,-0.39532 0.12049,-0.74536 0.1875,-1.04688 l 1.58789,-7.47656 -2.03516,0 z m -254.20508,0.004 -2.77344,13.125 2.06446,0 1.96875,-9.32618 c 0.61642,-0.46231 1.25966,-0.8642 1.92968,-1.19921 0.67002,-0.33501 1.34002,-0.50391 2.02344,-0.50391 0.3551,0 0.6564,0.0211 0.9043,0.0547 0.24792,0.0402 0.51573,0.0935 0.81054,0.17383 l 0.10743,0 0.4707,-2.1836 c -0.30822,-0.0535 -0.53648,-0.0951 -0.69727,-0.11523 -0.16082,-0.0197 -0.41636,-0.0254 -0.77148,-0.0254 -0.61642,0 -1.25884,0.14046 -1.93555,0.42187 -0.66331,0.28141 -1.48047,0.78336 -2.44531,1.51367 l 0.4082,-1.93554 -2.06445,0 z m 156.12891,0 -2.76563,13.125 2.05664,0 1.96875,-9.32618 c 0.61642,-0.46231 1.25968,-0.8642 1.92969,-1.19921 0.67001,-0.33501 1.34002,-0.50391 2.02344,-0.50391 0.35509,0 0.65639,0.0211 0.90429,0.0547 0.25463,0.0402 0.5244,0.0935 0.8125,0.17383 l 0.10547,0 0.47071,-2.1836 c -0.30821,-0.0535 -0.53647,-0.0951 -0.69727,-0.11523 -0.16081,-0.0197 -0.41637,-0.0254 -0.77148,-0.0254 -0.61642,0 -1.25967,0.14046 -1.92969,0.42187 -0.67002,0.28141 -1.48635,0.78336 -2.45117,1.51367 l 0.4082,-1.93554 -2.06445,0 z m 133.96289,0 -2.77539,13.125 2.06445,0 1.9707,-9.32618 c 0.61642,-0.4623 1.25968,-0.8642 1.92969,-1.19921 0.67003,-0.33501 1.34002,-0.50391 2.02344,-0.50391 0.3551,0 0.65641,0.0211 0.9043,0.0547 0.24791,0.0402 0.51572,0.0935 0.81054,0.17383 l 0.10742,0 0.46875,-2.1836 c -0.30821,-0.0535 -0.53646,-0.0951 -0.69726,-0.11523 -0.16081,-0.0197 -0.41441,-0.0254 -0.76953,-0.0254 -0.61641,0 -1.25968,0.14046 -1.92969,0.42187 -0.67672,0.28141 -1.48829,0.78336 -2.45313,1.51367 l 0.40821,-1.93554 -2.0625,0 z m -142.87695,1.37109 c 0.93131,0 1.61304,0.23412 2.03515,0.70313 0.42211,0.46902 0.63672,1.12732 0.63672,1.96484 0,0.18761 -0.006,0.36151 -0.0195,0.51562 -0.0133,0.16081 -0.0406,0.35509 -0.0742,0.57618 l -6.94141,0 c 0.2814,-1.12563 0.82571,-2.03644 1.62305,-2.72657 0.79731,-0.69012 1.7084,-1.0332 2.74024,-1.0332 z m 84.1582,0 c 0.93132,0 1.61501,0.23412 2.03711,0.70313 0.42211,0.46902 0.63672,1.12732 0.63672,1.96484 0,0.18761 -0.0145,0.36151 -0.0215,0.51562 -0.0199,0.16081 -0.0398,0.35509 -0.0801,0.57618 l -6.93359,0 c 0.2814,-1.12563 0.82376,-2.03644 1.62109,-2.72657 0.79732,-0.69012 1.70841,-1.0332 2.74024,-1.0332 z m -121.1543,0.10352 c 0.88444,0 1.56753,0.28205 2.05664,0.85156 0.48241,0.56283 0.73047,1.39336 0.73047,2.49219 0,0.91123 -0.10674,1.7833 -0.31445,2.60742 -0.20771,0.82413 -0.50396,1.5468 -0.89258,2.16992 -0.40201,0.64991 -0.88445,1.146 -1.44727,1.50781 -0.56951,0.3618 -1.19965,0.54297 -1.89648,0.54297 -0.89111,0 -1.57338,-0.28818 -2.0625,-0.87109 -0.4824,-0.58292 -0.73047,-1.41346 -0.73047,-2.49219 0,-0.89112 0.10673,-1.75513 0.31445,-2.58594 0.2144,-0.83083 0.5157,-1.55461 0.9043,-2.17773 0.40871,-0.6298 0.88445,-1.13232 1.44727,-1.49414 0.55612,-0.3618 1.18711,-0.55078 1.89062,-0.55078 z m 71.54102,0 c 0.88442,0 1.57422,0.28204 2.05664,0.85156 0.48911,0.56282 0.73047,1.39337 0.73047,2.49219 0,0.91124 -0.10676,1.7833 -0.31446,2.60742 -0.20771,0.82412 -0.50201,1.54681 -0.89062,2.16992 -0.40202,0.64992 -0.88446,1.14601 -1.44727,1.50781 -0.56952,0.36181 -1.19967,0.54297 -1.89648,0.54297 -0.89112,0 -1.58204,-0.28818 -2.06446,-0.87109 -0.48239,-0.58292 -0.73046,-1.41347 -0.73046,-2.49219 0,-0.89112 0.10869,-1.75513 0.3164,-2.58594 0.2144,-0.83083 0.5157,-1.55461 0.9043,-2.17773 0.40872,-0.62981 0.89116,-1.13233 1.44726,-1.49414 0.55613,-0.3618 1.18516,-0.55078 1.88868,-0.55078 z m 98.94531,0 c 0.88443,0 1.56752,0.28204 2.05664,0.85156 0.48241,0.56282 0.72461,1.39337 0.72461,2.49219 0,0.91124 -0.10089,1.7833 -0.30859,2.60742 -0.20771,0.82412 -0.50312,1.54681 -0.89844,2.16992 -0.39531,0.64992 -0.87776,1.14601 -1.44727,1.50781 -0.56281,0.36181 -1.19184,0.54297 -1.88867,0.54297 -0.89112,0 -1.58203,-0.28818 -2.06445,-0.87109 -0.4824,-0.58292 -0.72852,-1.41347 -0.72852,-2.49219 0,-0.89112 0.10674,-1.75513 0.31446,-2.58594 0.2144,-0.83083 0.5157,-1.55461 0.90429,-2.17773 0.40872,-0.62981 0.88446,-1.13233 1.44727,-1.49414 0.55612,-0.3618 1.18515,-0.55078 1.88867,-0.55078 z m -36.0293,0.0625 c 0.50252,0 0.99721,0.0741 1.48633,0.21484 0.48911,0.14741 0.96457,0.34806 1.43359,0.60937 l -1.51367,7.15626 c -0.59632,0.4154 -1.19804,0.75652 -1.81445,1.03124 -0.61644,0.2747 -1.23376,0.41602 -1.83008,0.41602 -0.87101,0 -1.49336,-0.25529 -1.88867,-0.75781 -0.38862,-0.50922 -0.58984,-1.22659 -0.58984,-2.14453 0,-0.8174 0.11287,-1.63376 0.33398,-2.45118 0.22111,-0.82412 0.52961,-1.52059 0.93164,-2.10351 0.42211,-0.61641 0.9249,-1.09887 1.50781,-1.44727 0.58292,-0.34841 1.23315,-0.52343 1.94336,-0.52343 z m -230.62891,0.0195 c 0.52931,0 1.02513,0.066 1.49415,0.19336 0.46902,0.13401 0.94532,0.33551 1.42773,0.60351 l -1.60742,7.54492 c -0.53602,0.38859 -1.11934,0.74982 -1.75586,1.07813 -0.63652,0.32831 -1.25357,0.49023 -1.86328,0.49023 -0.85761,0 -1.47245,-0.2486 -1.84766,-0.75781 -0.38191,-0.50252 -0.57617,-1.23327 -0.57617,-2.1914 0,-0.81073 0.10674,-1.6544 0.31445,-2.5254 0.20771,-0.87103 0.49615,-1.61517 0.88477,-2.23828 0.42212,-0.67672 0.92406,-1.2121 1.51367,-1.60742 0.58963,-0.38861 1.2652,-0.58984 2.01562,-0.58984 z m -70.023432,4.64258 -0.796875,3.6914 c -0.59631,0.44891 -1.232596,0.83157 -1.916016,1.14649 -0.69012,0.3149 -1.360958,0.47656 -2.017578,0.47656 -0.75043,0 -1.299197,-0.14856 -1.654297,-0.44336 -0.34842,-0.30152 -0.529297,-0.73016 -0.529297,-1.29297 0,-0.66333 0.146858,-1.21209 0.455078,-1.6543 0.30149,-0.44222 0.750234,-0.79143 1.339844,-1.05273 0.56282,-0.25461 1.280201,-0.45584 2.144531,-0.58984 0.86431,-0.14071 1.85569,-0.23435 2.97461,-0.28125 z m 48.593752,0 -0.79688,3.6914 c -0.59632,0.44891 -1.23258,0.83157 -1.91601,1.14649 -0.69012,0.3149 -1.36097,0.47656 -2.01758,0.47656 -0.75044,0 -1.29921,-0.14856 -1.6543,-0.44336 -0.34842,-0.30152 -0.5293,-0.73016 -0.5293,-1.29297 0,-0.66333 0.14688,-1.21209 0.45508,-1.6543 0.30151,-0.44222 0.75024,-0.79143 1.33985,-1.05273 0.56281,-0.25461 1.28021,-0.45584 2.14453,-0.58984 0.86432,-0.14071 1.85568,-0.23435 2.97461,-0.28125 z m 51.36914,0 -0.79688,3.6914 c -0.59632,0.44891 -1.23258,0.83157 -1.91601,1.14649 -0.68342,0.3149 -1.36097,0.47656 -2.01758,0.47656 -0.75044,0 -1.30003,-0.14856 -1.64844,-0.44336 -0.35511,-0.30152 -0.53515,-0.73016 -0.53515,-1.29297 0,-0.66333 0.15357,-1.21209 0.45508,-1.6543 0.30821,-0.44222 0.75023,-0.79143 1.33984,-1.05273 0.56282,-0.25461 1.28021,-0.45584 2.14453,-0.58984 0.87102,-0.14071 1.85568,-0.23435 2.97461,-0.28125 z m 27.72852,0 -0.79688,3.6914 c -0.59632,0.44891 -1.23259,0.83157 -1.91602,1.14649 -0.69012,0.3149 -1.36096,0.47656 -2.01757,0.47656 -0.75043,0 -1.2992,-0.14856 -1.6543,-0.44336 -0.34841,-0.30152 -0.5293,-0.73016 -0.5293,-1.29297 0,-0.66333 0.14686,-1.21209 0.45508,-1.6543 0.30151,-0.44222 0.75023,-0.79143 1.33984,-1.05273 0.56282,-0.25461 1.28021,-0.45584 2.14454,-0.58984 0.86432,-0.14071 1.85566,-0.23435 2.97461,-0.28125 z"
       style="fill:#d3081b;fill-opacity:1;fill-rule:nonzero;stroke:none" />
  </g>
</svg>
