<?xml version="1.0" encoding="UTF-8" standalone="no"?>
<svg
   xmlns:svg="http://www.w3.org/2000/svg"
   xmlns="http://www.w3.org/2000/svg"
   version="1.1"
   width="552.47089"
   height="220.12488"
   id="svg5325">
  <defs
     id="defs5327" />
  <g
     transform="translate(-73.76456,-422.29974)"
     id="layer1">
    <path
       d="m 546.91472,637.42462 74.32072,0 c -20.60087,-24.5184 -52.15509,-68.71458 -72.05805,-100.7416 21.83916,-25.68354 42.77217,-49.54903 54.69923,-61.99398 l -71.06736,0 c -10.12589,18.97419 -25.94802,40.6445 -41.38179,59.69749 -0.33772,0.68669 -0.96812,1.49721 -1.55351,2.45971 0.23078,-22.8467 0.97376,-45.74967 2.79181,-62.1572 l -55.33527,0 c 2.93816,18.67024 3.95131,56.30904 3.95131,81.36779 0,28.87499 -1.58727,63.89646 -4.48604,81.36779 l 57.50232,0 c -0.90059,-9.45613 -0.93437,-19.6271 -1.6098,-32.52798 6.32661,-7.91389 13.58193,-16.84093 21.34385,-26.25766 10.80701,17.21242 25.13192,41.64077 32.88258,58.78564 M 412.3877,474.68848 l -93.8634,0 c -33.56928,0 -58.0314,12.71513 -58.0314,46.59398 0,40.59947 43.26181,50.46086 78.65477,56.47789 15.19174,2.58355 34.1434,7.50862 42.82279,9.85014 2.42031,0.65292 2.82558,1.29459 2.82558,2.21206 0,0.68106 -0.40527,1.42968 -3.07324,1.5535 -14.07726,0.63604 -32.65744,0.15761 -46.31255,-0.37149 -22.23318,-0.87243 -53.03315,-2.81432 -71.12364,-7.70562 l 0,54.12511 85.7131,0 c 51.18134,0 80.38841,-9.53494 80.38841,-51.24324 0,-31.75685 -26.30268,-46.89792 -80.31523,-56.48915 -16.15423,-2.86498 -29.3309,-5.09956 -38.06094,-6.74312 -2.46535,-0.46717 -3.26463,-1.1595 -3.26463,-1.94189 0,-0.82178 0.75988,-1.50285 3.26463,-1.61542 23.9668,-0.99064 86.34915,1.61542 100.387,6.76001 l -0.0113,-51.46276 z m -278.78319,75.46727 c -0.39963,-0.57975 -1.05255,-1.63231 -1.55914,-2.56666 0.39401,1.41279 0.82179,3.61359 0.95688,4.99824 0,27.36651 1.06381,61.67314 3.79371,84.83504 l -58.0314,0 c 2.870612,-23.49399 4.334062,-58.76313 4.334062,-86.79944 0,-27.73799 -0.675437,-56.05011 -2.707387,-75.93614 l 68.883445,0 c 13.3399,24.07375 30.75496,52.71233 46.03112,74.47833 0.62477,0.83866 1.24956,1.79553 1.62667,2.56666 -0.0956,-0.91185 -0.197,-1.77303 -0.23077,-2.4935 0,-23.53339 -1.48596,-53.4947 -4.03012,-74.55149 l 57.50231,0 c -2.43158,22.21066 -3.25899,55.12701 -3.25899,81.37905 0,31.56548 1.40716,59.48359 5.44854,81.35653 l -63.48557,0 c -12.1016,-22.60467 -37.68945,-62.94522 -55.27336,-87.26662"
       id="path428"
       style="fill:#e20031;fill-opacity:1;fill-rule:nonzero;stroke:none" />
    <path
       d="m 606.89476,429.73357 -3.0845,0 0.0113,9.43925 -1.76176,0.006 -0.005,-9.44488 -3.06763,0 0,-1.6098 7.897,-0.006 0.0113,1.61543 z m 7.27784,6.51066 2.80307,-8.12215 2.70175,-0.006 0.005,11.04904 -1.75613,0 0,-8.97769 -0.0619,-0.006 -3.10701,8.98896 -1.19328,0 -3.12953,-8.98332 -0.0506,0 0,8.98332 -1.75051,0 -0.0113,-11.04905 2.70739,0 2.84246,8.12215 z m -354.5392,20.65153 c 3.56294,0 5.29094,-1.49723 5.29094,-4.27778 l 0,-20.7641 c -2.11075,-2.40344 -2.97757,-2.43157 -5.29094,-2.43157 l 0,-1.50849 11.63442,0 17.25183,20.71907 0.0956,0 0,-14.98347 c 0,-2.69049 -1.37902,-4.22711 -5.56673,-4.22711 l 0,-1.50849 12.86708,0 0,1.50849 c -3.89502,0 -4.87441,1.8068 -4.87441,4.22711 l 0,24.75481 -4.03011,0 -19.57081,-23.52214 -0.0956,0 0,17.73589 c 0,2.82558 1.84056,4.27778 5.61739,4.27778 l 0,1.50847 -13.32865,0 0,-1.50847 z m 120.58711,-10.42483 c 0,8.38106 -5.8932,12.45058 -12.52375,12.45058 -11.26856,0 -18.02857,-7.40732 -18.02857,-15.78838 0,-9.09026 7.03018,-15.83339 17.17865,-15.83339 3.03947,0 5.75247,1.12573 7.7394,2.15577 0.197,0.0956 0.45591,0.12387 0.60788,0.0113 0.47844,-0.34898 1.1595,-0.97939 1.81243,-1.57603 l 1.6098,0 0.42215,10.37361 -1.83495,0.26454 c -1.64919,-4.36782 -4.47478,-9.43924 -10.1766,-9.43924 -6.69809,0 -8.84261,5.40913 -8.84261,13.15979 0,4.7562 0.6079,7.94203 2.28523,10.61563 1.58165,2.52163 4.42413,4.06952 7.2497,4.06952 6.86697,0 10.45804,-4.76184 10.45804,-10.46366 l 2.0432,0 z m -255.61453,11.93105 -17.25743,0 0,-1.50847 c 3.66987,-0.34335 4.55357,-1.06945 4.55357,-3.79935 l 0,-23.09999 -0.09,0 -9.72067,28.40781 -3.979465,0 -10.125938,-28.49786 -0.09562,0 0,22.66657 c 0,3.14079 1.530988,3.97947 5.532963,4.32282 l 0,1.50847 -13.030325,0 0,-1.50847 c 3.152037,-0.27018 5.077037,-0.99065 5.077037,-4.32282 l 0,-20.09991 c 0,-1.97566 -0.968125,-3.0451 -5.077037,-3.0451 l 0,-1.51411 14.730175,0 7.58179,21.36074 7.31724,-21.36074 14.58384,0 0,1.51411 c -4.244,0 -4.90819,1.10885 -4.90819,3.12953 l 0,20.53895 c 0,2.92689 1.00754,3.456 4.90819,3.79935 l 0,1.50847 z m 298.78066,-1.50622 c 3.56293,0 5.29093,-1.49723 5.29093,-4.27778 l 0,-20.7641 c -2.11075,-2.40344 -2.97756,-2.43157 -5.29093,-2.43157 l 0,-1.50849 11.63442,0 17.25183,20.71907 0.09,0 0,-14.98347 c 0,-2.69049 -1.38465,-4.22711 -5.5611,-4.22711 l 0,-1.50849 12.86146,0 0,1.50849 c -3.8894,0 -4.88004,1.8068 -4.88004,4.22711 l 0,24.75481 -4.01886,0 -19.57081,-23.52214 -0.0956,0 0,17.73589 c 0,2.82558 1.82931,4.27778 5.61176,4.27778 l 0,1.50847 -13.32302,0 0,-1.50847 z m 65.77923,1.50622 0,-1.50847 c -4.19334,0 -5.15021,-0.7655 -5.15021,-4.18209 l 0,-23.4152 c 5.16148,0 7.39605,0.52346 10.72259,9.5856 l 1.27207,-0.14635 -0.23077,-10.8239 -31.60489,0 -0.2364,10.8239 1.27208,0.14635 c 3.30965,-9.06214 5.55547,-9.5856 10.71132,-9.5856 l 0,23.4152 c 0,3.41658 -0.93999,4.18209 -5.13896,4.18209 l 0,1.50847 18.38317,0 z m -298.95626,0 0,-1.50847 c -4.19897,0 -5.13896,-0.7655 -5.13896,-4.18209 l 0,-23.4152 c 5.16147,0 7.40169,0.52346 10.72259,9.5856 l 1.2777,-0.14635 -0.24767,-10.8239 -31.59925,0 -0.2364,10.8239 1.27208,0.14635 c 3.3209,-9.06214 5.55547,-9.5856 10.71695,-9.5856 l 0,23.4152 c 0,3.41658 -0.93998,4.18209 -5.13895,4.18209 l 0,1.50847 18.37191,0 z m 362.87749,-1.1657 c 3.88377,0 8.21215,-3.1239 8.21215,-14.07162 0,-10.95335 -4.32844,-14.07163 -8.21215,-14.07163 -3.87252,0 -8.18975,3.11828 -8.18975,14.07163 0,10.94772 4.31724,14.07162 8.18975,14.07162 m -16.7565,-14.07162 c 0,-10.04152 9.0959,-15.76023 16.7565,-15.76023 7.67185,0 16.77901,5.71871 16.77901,15.76023 0,10.03588 -9.10721,15.76022 -16.77901,15.76022 -7.6606,0 -16.7565,-5.72434 -16.7565,-15.76022 m -297.02958,14.07162 c 3.88378,0 8.2122,-3.1239 8.2122,-14.07162 0,-10.95335 -4.32842,-14.07163 -8.2122,-14.07163 -3.87251,0 -8.20095,3.11828 -8.20095,14.07163 0,10.94772 4.32844,14.07162 8.20095,14.07162 m -16.76775,-14.07162 c 0,-10.04152 9.10715,-15.76023 16.76775,-15.76023 7.66623,0 16.76775,5.71871 16.76775,15.76023 0,10.03588 -9.10152,15.76022 -16.76775,15.76022 -7.6606,0 -16.76775,-5.72434 -16.76775,-15.76022 m 180.85083,14.07162 c 3.87251,0 8.18969,-3.1239 8.18969,-14.07162 0,-10.95335 -4.31718,-14.07163 -8.18969,-14.07163 -3.87814,0 -8.2122,3.11828 -8.2122,14.07163 0,10.94772 4.33406,14.07162 8.2122,14.07162 m -16.77338,-14.07162 c 0,-10.04152 9.10715,-15.76023 16.77338,-15.76023 7.66622,0 16.76212,5.71871 16.76212,15.76023 0,10.03588 -9.0959,15.76022 -16.76212,15.76022 -7.66623,0 -16.77338,-5.72434 -16.77338,-15.76022 M 144.7076,457.23628 c 3.88376,0 8.20093,-3.1239 8.20093,-14.07162 0,-10.95335 -4.31717,-14.07163 -8.20093,-14.07163 -3.88378,0 -8.20658,3.11828 -8.20658,14.07163 0,10.94772 4.3228,14.07162 8.20658,14.07162 m -16.76777,-14.07162 c 0,-10.04152 9.10717,-15.76023 16.76777,-15.76023 7.66621,0 16.76775,5.71871 16.76775,15.76023 0,10.03588 -9.10154,15.76022 -16.76775,15.76022 -7.6606,0 -16.76777,-5.72434 -16.76777,-15.76022 m 90.13837,15.23732 0,-1.50847 c -3.64738,0 -4.51419,-0.95125 -4.51419,-3.29277 l 0,-20.87667 c 0,-2.34715 0.86681,-3.29839 4.51419,-3.29839 l 0,-1.51411 -16.94225,0 0,1.51411 c 3.64737,0 4.50292,0.95124 4.50292,3.29839 l 0,20.87667 c 0,2.34151 -0.85555,3.29277 -4.50292,3.29277 l 0,1.50847 16.94225,0 z m 385.48552,0 -29.96695,0 0,-1.50847 c 3.82749,-0.14073 5.07143,-0.98503 5.07143,-3.3378 l 0,-20.6684 c 0,-2.48224 -0.63041,-3.46163 -5.07143,-3.46163 l 0,-1.51411 18.69839,0 0,1.51411 c -5.06579,0 -5.70183,1.13699 -5.70183,3.46163 l 0,20.11116 c 0,2.71865 1.36777,3.66426 4.00198,3.66426 6.4054,0 9.87827,-3.69802 11.58376,-9.63626 l 1.69985,0 -0.3152,11.37551 z m -90.71247,-16.30339 c 6.91761,0 8.85386,-2.00943 8.85386,-6.00577 0,-3.21959 -2.17266,-6.33786 -5.45416,-6.33786 -2.30775,0 -3.3997,1.05256 -3.3997,2.93252 l 0,9.41111 z m 6.366,1.6323 c 4.05826,0.27018 6.33224,3.31528 7.15965,6.2647 1.20452,4.30029 2.03756,4.88004 3.29838,4.88004 0.95124,0 1.71674,-1.08634 1.71674,-3.15768 l 1.82369,0 c 0,4.85753 -2.71301,7.20468 -6.96265,7.20468 -4.9307,0 -6.99641,-1.95878 -7.4073,-7.99831 -0.33209,-4.83502 -1.43531,-6.79942 -5.99451,-6.79942 l 0,8.53867 c 0,3.34342 1.30021,4.23275 4.85752,4.23275 l 0,1.50285 -17.55576,0 0,-1.50285 c 4.29466,0 4.60986,-1.55352 4.60986,-4.23275 l 0,-19.19933 c 0,-3.26462 -1.28896,-4.04137 -4.60986,-4.04137 l 0,-1.50848 17.28559,0 c 8.24597,0 12.48428,3.07324 12.48428,7.99268 0,4.35095 -4.2946,7.33413 -10.70563,7.6212 l 0,0.20262 z m -199.14733,13.13447 c -4.3622,0 -7.35101,-2.91564 -7.35101,-6.29847 0,-3.36592 2.05445,-5.22338 6.86133,-7.68873 l 9.60247,9.69817 c -2.34151,2.90438 -5.6962,4.28903 -9.11279,4.28903 m 1.13699,-26.8149 c 2.7299,0 4.35658,2.02068 4.35658,3.68113 0,2.38655 -1.87434,4.23275 -5.51046,5.95513 -2.29086,-2.24021 -3.55167,-3.7318 -3.55167,-5.95513 0,-2.07696 2.21769,-3.68113 4.70555,-3.68113 m 17.94414,28.35152 -6.35474,-6.21966 c 1.20452,-2.15015 1.78991,-4.22711 2.03194,-7.49174 l -2.96068,0 c -0.0506,2.05446 -0.41651,3.84438 -1.14824,5.45416 l -8.67938,-8.52177 c 4.86316,-2.58918 6.26468,-4.90255 6.26468,-7.89138 0,-3.79933 -3.48412,-6.28157 -7.05832,-6.28157 -3.66425,0 -7.54239,2.38092 -7.54239,6.28157 0,2.67362 1.07506,4.30593 3.85563,7.10899 -5.76374,2.86499 -7.7394,6.12961 -7.7394,10.03589 0,4.90819 4.33406,8.64561 10.14283,8.64561 4.48603,0 8.90453,-1.94751 11.24604,-4.90819 l 3.75431,3.78809 4.18772,0 z"
       id="path492"
       style="fill:#000000;fill-opacity:1;fill-rule:nonzero;stroke:none" />
  </g>
</svg>
