<svg width="246.97" height="34.729" version="1.1" xmlns="http://www.w3.org/2000/svg"><rect width="100%" height="100%" fill="#fff"/><path d="m187.02 29.906h-5.978l-9.65-16.1v16.1h-5.475v-25.004h5.981l9.65 16.098v-16.098h5.472zm-23.14-20.404h-13.844v5.371h11.938v4.598h-11.938v5.836h13.844v4.6h-18.618l-0.015-25.007 18.633 2e-3zm-40.43-9.463v4.863h7.776c9.27 0 12.566 5.698 12.566 12.502s-3.296 12.502-12.566 12.502h-7.776v4.862h123.5v-34.728z" fill="#00adef"/><path d="m138.94 17.4c0-4.684-1.648-7.902-6.628-7.902h-4.076v15.805h4.076c4.98 0 6.628-3.22 6.628-7.903m-112.53-14.826 1.643-1.38h11.97l1.37-1.15h-41.4v34.729h24.708l1.645-1.381h13.68l1.368-1.152h-25.513l2.466-2.068h11.63l1.643-1.38h8.405l1.368-1.15h-24.705l2.466-2.069h11.784l1.643-1.381h7.445l1.368-1.15h-26.398l2.465-2.07h11.957l1.644-1.38h8.964l1.368-1.15h-29.086l2.466-2.069h11.113l1.646-1.38h12.493l1.368-1.149h-31.91l2.466-2.07h11.31l1.643-1.38h15.12l1.37-1.15h-31.909l2.467-2.07h11.427l1.645-1.38h15.001l1.37-1.15h-29.08l2.467-2.07zm47.559 12.773c-3.124-0.91-4.093-1.065-6.155-1.69-3.857-1.17-2.948-5.115 1.559-5.115 2.253 0 4.938 0.912 5.113 4.205l5.42 0.013c0.127-3.682-2.603-8.593-10.317-8.722-5.416-0.092-9.746 3.076-9.746 7.842 0 4.856 3.942 5.937 5.198 6.5 1.257 0.564 5.747 1.837 6.976 2.124 2.428 0.564 4.25 5.027-2.557 5.545-2.036 0.156-5.59-0.734-5.503-4.592h-5.201c-0.26 5.243 3.121 9.013 10.964 9.013 6.718 0 9.763-3.13 10.1-7.798 0.302-4.248-2.731-6.415-5.851-7.325m13.466 5.413 3.166-10.14 3.167 10.144zm0.172-15.86-8.924 25.005h5.763l1.517-4.893 8.997-4e-3 1.527 4.896 5.857 1e-3 -8.928-25.005zm35.841-6e-3h-5.471v16.098l-9.652-16.098h-5.978v25.004h5.47v-16.1l9.652 16.1h5.979c-0.022-0.172-0.022-24.83 0-25.004" fill="#00adef"/></svg>
