<?xml version="1.0" encoding="UTF-8" standalone="no"?>
<svg
   xmlns:dc="http://purl.org/dc/elements/1.1/"
   xmlns:cc="http://creativecommons.org/ns#"
   xmlns:rdf="http://www.w3.org/1999/02/22-rdf-syntax-ns#"
   xmlns:svg="http://www.w3.org/2000/svg"
   xmlns="http://www.w3.org/2000/svg"
   xmlns:sodipodi="http://sodipodi.sourceforge.net/DTD/sodipodi-0.dtd"
   xmlns:inkscape="http://www.inkscape.org/namespaces/inkscape"
   version="1.1"
   width="956.69287"
   height="454.60629"
   id="svg2"
   sodipodi:docname="Valeo_Logo.svg"
   inkscape:version="1.0.2 (e86c870879, 2021-01-15, custom)">
  <metadata
     id="metadata885">
    <rdf:RDF>
      <cc:Work
         rdf:about="">
        <dc:format>image/svg+xml</dc:format>
        <dc:type
           rdf:resource="http://purl.org/dc/dcmitype/StillImage" />
      </cc:Work>
    </rdf:RDF>
  </metadata>
  <sodipodi:namedview
     pagecolor="#ffffff"
     bordercolor="#666666"
     borderopacity="1"
     objecttolerance="10"
     gridtolerance="10"
     guidetolerance="10"
     inkscape:pageopacity="0"
     inkscape:pageshadow="2"
     inkscape:window-width="3840"
     inkscape:window-height="2066"
     id="namedview883"
     showgrid="false"
     inkscape:zoom="1.3975227"
     inkscape:cx="478.34644"
     inkscape:cy="227.30315"
     inkscape:window-x="-11"
     inkscape:window-y="-11"
     inkscape:window-maximized="1"
     inkscape:current-layer="g70327" />
  <defs
     id="defs4">
    <linearGradient
       x1="0"
       y1="0"
       x2="1"
       y2="0"
       id="linearGradient22172"
       gradientUnits="userSpaceOnUse"
       gradientTransform="matrix(0,1.4407654,2.0602722,0,453.66006,712.59692)"
       spreadMethod="pad">
      <stop
         id="stop22174"
         style="stop-color:#0066b3;stop-opacity:1"
         offset="0" />
      <stop
         id="stop22176"
         style="stop-color:#005a9f;stop-opacity:1"
         offset="1" />
    </linearGradient>
    <linearGradient
       x1="0"
       y1="0"
       x2="1"
       y2="0"
       id="linearGradient21392"
       gradientUnits="userSpaceOnUse"
       gradientTransform="matrix(0,1.4407654,2.0602112,0,454.18585,712.59692)"
       spreadMethod="pad">
      <stop
         id="stop21394"
         style="stop-color:#0066b3;stop-opacity:1"
         offset="0" />
      <stop
         id="stop21396"
         style="stop-color:#00427b;stop-opacity:1"
         offset="1" />
    </linearGradient>
    <linearGradient
       x1="0"
       y1="0"
       x2="1"
       y2="0"
       id="linearGradient21292"
       gradientUnits="userSpaceOnUse"
       gradientTransform="matrix(0,1.4407654,2.0602112,0,454.25323,712.59692)"
       spreadMethod="pad">
      <stop
         id="stop21294"
         style="stop-color:#0066b3;stop-opacity:1"
         offset="0" />
      <stop
         id="stop21296"
         style="stop-color:#003f76;stop-opacity:1"
         offset="1" />
    </linearGradient>
    <linearGradient
       x1="0.0060000001"
       y1="0"
       x2="1"
       y2="0"
       id="linearGradient17692"
       gradientUnits="userSpaceOnUse"
       gradientTransform="matrix(-6.0323181,2.1955872,10.15593,27.903229,400.78052,705.12317)"
       spreadMethod="pad">
      <stop
         id="stop17694"
         style="stop-color:#de1a22;stop-opacity:1"
         offset="0" />
      <stop
         id="stop17696"
         style="stop-color:#ed1c24;stop-opacity:1"
         offset="1" />
    </linearGradient>
    <linearGradient
       x1="0.0060000001"
       y1="0"
       x2="1"
       y2="0"
       id="linearGradient10076"
       gradientUnits="userSpaceOnUse"
       gradientTransform="matrix(9.6703644,2.2325745,6.9829865,-30.246658,376.10529,735.10596)"
       spreadMethod="pad">
      <stop
         id="stop10078"
         style="stop-color:#feede5;stop-opacity:1"
         offset="0" />
      <stop
         id="stop10080"
         style="stop-color:#ed1c24;stop-opacity:1"
         offset="1" />
    </linearGradient>
  </defs>
  <g
     transform="translate(-432.82926,-31.305795)"
     id="layer1">
    <g
       transform="matrix(12.875155,0,0,12.875155,-5104.483,-5805.714)"
       id="g70327">
      <g
         transform="matrix(1.25,0,0,-1.25,499.80438,478.00345)"
         id="g41720">
        <path
           d="m 0,0 c -4.597,0.341 -10.317,0.624 -16.568,0.624 -9.568,0 -20.371,-0.653 -30.224,-2.695 -1.652,2.086 -3.662,3.724 -6.743,5.018 l -0.045,-0.09 c 2.725,-2.961 4.466,-5.521 5.7,-9.184 13.813,5.15 31.154,6.104 44.247,6.104 1.253,0 2.447,-0.015 3.602,-0.03 L 0,0"
           id="path41722"
           style="fill:#4e6b7c;fill-opacity:1;fill-rule:nonzero;stroke:none" />
      </g>
      <g
         transform="matrix(1.25,0,0,-1.25,481.83438,466.30095)"
         id="g41724">
        <path
           d="m 0,0 c 0.075,0.356 0.135,0.654 0.135,1.071 0,0.803 -0.507,1.132 -1.044,1.132 C -1.788,2.203 -2.246,1.681 -2.454,0 L 0,0 z m -17.429,-4.05 c -0.268,-0.193 -0.67,-0.416 -1.116,-0.416 -0.849,0 -0.968,0.715 -0.968,1.563 0,0.997 0.269,2.768 0.565,3.468 0.448,1.072 1.058,1.369 2.04,1.369 0.029,0 0.105,0 0.209,-0.015 l -0.73,-5.969 z m 28.842,2.443 c -0.311,-2.888 -0.744,-3.484 -1.574,-3.484 -0.761,0 -1.058,0.552 -1.058,1.757 0,0.52 0.059,1.249 0.149,2.008 0.313,2.889 0.745,3.484 1.575,3.484 0.761,0 1.058,-0.551 1.058,-1.756 0,-0.521 -0.06,-1.25 -0.15,-2.009 z m -19.766,-5.477 -4.135,0 1.875,15.239 4.139,0 -1.879,-15.239 z m 8.413,2.648 c 0.83,0 1.948,0.193 2.827,0.446 L 2.381,-6.759 c -1.044,-0.266 -2.514,-0.415 -3.826,-0.415 -4.18,0 -5.342,1.817 -5.342,4.197 0,6.088 2.619,7.471 6.221,7.471 2.828,0 4.582,-1.368 4.582,-3.989 0,-1.144 -0.234,-2.173 -0.398,-2.887 l -6.222,0 c 0,-1.311 0.428,-2.054 2.664,-2.054 z m -16.269,8.841 c -2.887,0 -4.449,-0.55 -5.715,-1.904 -1.205,-1.282 -1.845,-3.544 -1.845,-5.94 0,-2.084 0.52,-3.809 3.096,-3.809 1.174,0 2.203,0.444 3.155,0.997 l 0.044,0 -0.103,-0.833 3.914,0 1.399,11.414 c -1.146,0.046 -2.471,0.075 -3.945,0.075 z M 15.837,0.356 c 0,2.948 -1.909,4.138 -5.109,4.138 -3.866,0 -6.221,-1.772 -6.221,-7.784 0,-2.946 1.908,-4.138 5.109,-4.138 3.866,0 6.221,1.727 6.221,7.784 z M -25.199,8.155 C -26.15,4.584 -27.461,1.011 -29.143,-2.576 l -0.03,0 c -0.445,2.917 -0.669,7.115 -0.669,10.731 l -4.794,0 c 0.15,-5.713 1.147,-10.76 2.264,-15.239 l 4.614,0 c 2.604,4.702 5.045,9.762 6.935,15.239 l -4.376,0"
           id="path41726"
           style="fill:#82e600;fill-opacity:1;fill-rule:nonzero;stroke:none" />
      </g>
    </g>
  </g>
</svg>
